<svg width="120" height="96" viewBox="0 0 120 96" fill="none" xmlns="http://www.w3.org/2000/svg">
<g clip-path="url(#clip0)">
<rect width="120" height="96" rx="4" fill="#F0F729"/>
<path d="M43.6743 34.6644C40.5741 29.3992 34.4407 29.1538 34.4407 29.1538C34.4407 29.1538 28.4639 28.3856 24.6299 36.4046C21.0563 43.8789 16.1243 51.0956 23.8359 52.8453L25.2288 48.4876L26.0915 53.1697C27.1895 53.2491 28.291 53.268 29.391 53.2264C37.6496 52.9584 45.5146 53.3048 45.2613 50.3261C44.9247 46.3663 46.6573 39.7306 43.6743 34.6644Z" fill="#2F2E41"/>
<path d="M30.9492 45.684C32.0175 48.0591 32.6911 50.8903 33.0933 54.035L41.6698 53.4962C39.698 50.6879 39.0433 47.4645 39.7937 43.7983L30.9492 45.684Z" fill="#FFB8B8"/>
<path opacity="0.2" d="M30.9492 45.684C32.0175 48.0591 32.6911 50.8903 33.0933 54.035L41.6698 53.4962C39.698 50.6879 39.0433 47.4645 39.7937 43.7983L30.9492 45.684Z" fill="black"/>
<path d="M45.4222 83.9366L45.3529 87.2015L45.2049 94.256V94.2572L45.1619 96.3002H16.7764L17.93 89.8614L17.9312 89.8567L18.9641 84.0938L19.4251 81.513V81.5118L42.7423 78.2793L45.4222 83.9366Z" fill="#06232D"/>
<path d="M45.422 83.937L45.3523 87.202C37.1029 86.9891 24.3161 84.9876 18.9639 84.0932L19.4248 81.5125L42.7419 78.2799L45.422 83.937Z" fill="#0E3B7B"/>
<path d="M35.1036 47.9738C38.8041 47.9738 41.8039 44.9586 41.8039 41.2392C41.8039 37.5197 38.8041 34.5045 35.1036 34.5045C31.4031 34.5045 28.4033 37.5197 28.4033 41.2392C28.4033 44.9586 31.4031 47.9738 35.1036 47.9738Z" fill="#FFB8B8"/>
<path d="M47.968 87.5737C47.968 87.5737 48.772 94.8472 43.9478 94.3084L43.1438 87.0349L38.8556 82.7247L26.795 82.4554L17.9506 90.8064C17.9506 90.8064 17.6826 82.186 18.7546 81.3778C19.8267 80.5697 22.2388 78.6839 22.2388 78.6839V77.337L15.0024 62.5207C15.0024 62.5207 19.2906 53.631 22.7748 53.3616L27.331 53.0922C27.331 53.0922 28.9391 52.284 28.9391 52.0146C28.9391 51.7452 28.6711 49.5902 30.0112 50.1289C30.0112 50.1289 30.1317 47.365 31.5442 48.2082C31.5442 48.2082 35.9905 51.7102 40.5039 48.3617C40.5039 48.3617 42.6078 47.9738 42.3397 49.0514C42.0717 50.1289 42.3397 50.9371 42.8758 50.9371C43.4118 50.9371 45.8239 51.7452 45.8239 52.284C45.8239 52.3999 45.9981 53.5151 46.2715 55.1934V55.1961C47.2658 61.3139 49.5761 74.9125 49.5761 74.9125C49.5761 74.9125 51.9882 78.4146 47.968 87.5737Z" fill="#B4E1B9"/>
<path d="M16.8786 61.1738L15.0025 62.5207L-2.15027 84.6105L-11.2627 91.8839C-11.2627 91.8839 -6.17046 91.0757 -7.2425 95.3859L24.1149 77.337L16.8786 61.1738Z" fill="#B4E1B9"/>
<path d="M46.2718 55.1934V55.1961C45.9154 57.3027 34.2997 56.8636 32.6916 56.8636C31.0836 56.8636 29.7435 56.5942 28.1354 55.5166C26.5273 54.4391 27.3314 53.0922 27.3314 53.0922C27.3314 53.0922 28.7006 52.0439 28.7006 51.7746C28.7006 51.5052 28.4326 49.3501 29.7727 49.8888C29.7727 49.8888 29.8933 47.1249 31.3057 47.9681C31.3057 47.9681 35.9909 51.7102 40.5042 48.3617C40.5042 48.3617 42.6081 47.9738 42.3401 49.0514C42.0721 50.1289 42.3401 50.9371 42.8761 50.9371C43.4121 50.9371 45.8242 51.7452 45.8242 52.284C45.8242 52.3998 45.9985 53.5151 46.2718 55.1934Z" fill="#0E3B7B"/>
<path d="M44.8858 45.1453C44.8858 45.1453 42.7417 40.5657 40.5976 42.7208C38.4535 44.8759 43.0097 48.1085 43.0097 48.1085L44.8858 45.1453Z" fill="#FFB8B8"/>
<path d="M44.8863 44.0677C44.8863 44.0677 41.5755 48.2733 40.5508 48.595C40.5508 48.595 43.5463 60.5003 47.2984 63.7329L49.4425 74.7778C49.4425 74.7778 58.5549 71.0064 56.4108 64.8105C56.3894 64.7485 56.3681 64.6869 56.3469 64.6257C54.5566 59.4659 52.0859 54.5707 49.0008 50.071L44.8863 44.0677Z" fill="#B4E1B9"/>
<path opacity="0.2" d="M43.1167 56.5412L49.7102 74.7779L47.2981 63.733L43.1167 56.5412Z" fill="black"/>
<path d="M42.304 34.1568L36.2443 30.9665L27.8764 32.2716L26.145 39.9574L30.4548 39.7908L31.6588 36.9671V39.7443L33.6474 39.6674L34.8016 35.1719L35.523 39.9574L42.5925 39.8125L42.304 34.1568Z" fill="#2F2E41"/>
<path d="M99.5474 75.6138L102.985 87.9406C102.985 87.9406 102.277 98.8592 105.583 96.7229C108.966 94.5368 107.708 85.3297 107.708 85.3297L105.727 74.2709L99.5474 75.6138Z" fill="#A0616A"/>
<path d="M101.384 41.0341L104.223 43.8877V57.4846C104.223 57.4846 105.893 60.0026 105.559 60.674C105.225 61.3455 104.891 61.3455 105.225 61.8491C105.559 62.3527 105.893 62.6884 105.559 63.0241C105.225 63.3598 105.225 64.1991 105.559 64.5349C105.893 64.8706 106.561 65.3742 106.06 65.8778C105.559 66.3814 104.891 66.0456 105.559 67.8921C106.227 69.7386 107.396 70.2422 107.062 70.9137C106.728 71.5851 106.728 73.2637 106.728 73.2637L99.547 74.2709L98.0439 55.3024L101.384 41.0341Z" fill="#CAC9C7"/>
<path d="M107.063 73.0959L98.7124 73.4316L99.0464 76.9567L106.395 75.6139L107.063 73.0959Z" fill="#0E3B7B"/>
<path d="M84.0993 23.4924L83.0972 33.5641L93.2846 35.0749L94.0362 29.2837L94.7877 23.4924H84.0993Z" fill="#A0616A"/>
<path opacity="0.1" d="M84.0993 23.4378L83.0972 33.5097L93.2846 35.0205L94.0362 29.2291L94.7877 23.4378H84.0993Z" fill="black"/>
<path d="M61.9707 71.4172L67.6489 83.6712C67.6489 83.6712 68.6509 89.3786 70.154 89.5464C71.657 89.7143 73.1601 83.6712 73.1601 83.6712L71.156 80.4818L68.8179 71.4172H61.9707Z" fill="#A0616A"/>
<path d="M100.84 96.4191H68.7383C68.9927 92.3751 69.1527 89.882 69.1527 89.882L69.579 89.2074L71.6462 85.9424L73.1223 83.6113L73.637 82.7975L73.8281 82.4962L75.8499 82.1253L96.7082 78.2998C97.0532 79.8525 97.5414 81.3695 98.1664 82.8311C98.3085 83.1564 98.4613 83.4817 98.6249 83.8034C99.1492 84.8321 99.7893 85.8068 100.55 86.5246C100.723 86.6878 100.849 87.1236 100.93 87.7934C101.13 89.4342 101.073 92.4855 100.84 96.4191Z" fill="#06232D"/>
<path d="M89.6941 26.7657C94.1214 26.7657 97.7104 23.1583 97.7104 18.7083C97.7104 14.2583 94.1214 10.6509 89.6941 10.6509C85.2668 10.6509 81.6777 14.2583 81.6777 18.7083C81.6777 23.1583 85.2668 26.7657 89.6941 26.7657Z" fill="#A0616A"/>
<path d="M71.8241 35.1588L70.6551 34.4874C70.6551 34.4874 65.4778 38.0125 63.8078 45.9021C62.1377 53.7916 60.9687 55.806 60.9687 55.806C60.9687 55.806 59.2986 56.1417 60.4676 57.3168C61.6367 58.4918 61.6367 58.3239 60.6346 58.9954C59.6326 59.6668 58.9646 58.3239 59.6326 59.6668C60.3006 61.0097 61.1357 60.674 60.4676 61.5133C59.7996 62.3526 58.6306 62.3526 59.2986 63.0241C59.9666 63.6956 58.6306 65.2063 59.4656 65.8778C60.3006 66.5492 60.6346 66.7171 60.6346 67.8921C60.6295 68.5779 60.7425 69.2594 60.9687 69.9065H69.653C69.653 69.9065 67.9829 66.7171 68.484 66.0456C68.985 65.3742 69.152 64.7027 68.818 64.367C68.484 64.0313 67.4819 64.7027 68.484 63.8634C69.486 63.0241 69.82 63.5277 69.486 62.5205C69.152 61.5133 68.484 62.0169 69.152 61.5133C69.82 61.0097 70.321 61.1776 69.987 60.674C69.653 60.1704 68.985 60.1704 69.653 59.8347C70.321 59.499 70.8221 59.8347 70.6551 58.9954C70.4881 58.1561 70.321 58.4918 70.6551 58.1561C70.9891 57.8203 74.4962 46.4057 74.4962 46.0699C74.4962 45.7342 71.8241 35.1588 71.8241 35.1588Z" fill="#CAC9C7"/>
<path d="M70.1542 69.2351L59.6328 69.9065L62.3049 72.4244L69.6532 72.5923L70.1542 69.2351Z" fill="#0E3B7B"/>
<path d="M73.1603 81.8247L70.9893 85.8535C70.9893 85.8535 77.5025 86.6928 79.8406 87.5321C82.1787 88.3714 88.1909 89.5465 88.1909 89.5465L89.6939 83.6712L73.1603 81.8247Z" fill="#0E3B7B"/>
<path d="M92.1987 83.6712L94.0359 89.2107L101.384 87.6999L100.549 82.4962L92.1987 83.6712Z" fill="#0E3B7B"/>
<path d="M95.2052 29.4515C95.2052 29.4515 94.7042 29.1158 93.5351 29.7872C92.3661 30.4587 88.525 30.7944 86.6879 28.78C84.8508 26.7657 83.5148 25.0871 83.0137 25.4228C82.5127 25.7585 82.1787 29.6194 82.1787 29.6194L80.5086 30.9623L70.6553 34.4874L71.4903 57.1489L72.9934 62.3526C72.9934 62.3526 71.8243 66.3813 73.3274 68.7314C74.8304 71.0815 72.4923 71.9208 72.4923 71.9208C72.4923 71.9208 71.9913 72.5923 72.3253 74.2709C72.6593 75.9495 71.9913 82.1604 71.9913 82.1604C71.9913 82.1604 86.1869 88.5392 101.05 82.9998L99.3804 76.621L98.5453 62.3526C98.5453 62.3526 99.3804 60.0025 99.2134 58.9954C99.0464 57.9882 104.224 43.8877 104.224 43.8877C104.224 43.8877 103.389 36.8375 99.0464 35.3267C94.7042 33.8159 94.0362 32.3052 94.0362 32.3052C94.0362 32.3052 96.0402 30.1229 95.2052 29.4515Z" fill="#CAC9C7"/>
<path d="M81.6217 19.7404C81.6217 19.7404 80.7893 18.4854 81.1094 17.1337C81.3007 16.3664 81.3763 15.5744 81.3336 14.7845C81.3336 14.7845 82.0059 12.5961 82.6783 11.3732C83.3506 10.1503 83.0305 9.63543 85.1436 9.24926C87.2568 8.86308 86.3923 6.09547 91.9633 9.08835C92.1513 9.35212 92.4128 9.55403 92.7148 9.66858C93.0168 9.78313 93.3458 9.80519 93.6602 9.73198C94.8129 9.50671 95.2291 11.1158 95.2291 11.1158C95.2291 11.1158 95.9975 10.6652 96.2857 11.3089C96.5738 11.9525 98.6284 10.9226 98.6284 15.2671C98.6284 19.6116 96.2903 23.4924 96.2903 23.4924C96.2903 23.4924 96.4618 16.1844 92.6517 15.4442C88.8416 14.704 84.7434 12.5479 83.7509 15.3155C82.7583 18.0831 81.6217 19.7404 81.6217 19.7404Z" fill="#2F2E41"/>
<path d="M96.3741 21.478C96.7892 21.478 97.1256 21.0271 97.1256 20.4709C97.1256 19.9146 96.7892 19.4637 96.3741 19.4637C95.959 19.4637 95.6226 19.9146 95.6226 20.4709C95.6226 21.0271 95.959 21.478 96.3741 21.478Z" fill="#A0616A"/>
</g>
<defs>
<clipPath id="clip0">
<rect width="120" height="96" rx="4" fill="white"/>
</clipPath>
</defs>
</svg>
