<svg width="120" height="96" viewBox="0 0 120 96" fill="none" xmlns="http://www.w3.org/2000/svg">
<g clip-path="url(#clip0)">
<rect width="120" height="96" rx="4" fill="#0E3B7B"/>
<path d="M58.844 6C48.6968 6 41.3095 12.8707 38.8191 22.68L35.7319 37.3958H37.9285L42.6877 25.3486L41.6858 37.3958H44.1521L45.9825 31.1896L45.5972 37.3958H75.27V22.3799C75.27 20.2289 74.8451 18.0989 74.0196 16.1116C73.1941 14.1243 71.9842 12.3186 70.4589 10.7976C68.9336 9.27654 67.1228 8.07001 65.1299 7.24684C63.137 6.42367 61.0011 6 58.844 6Z" fill="#06232D"/>
<path d="M45.4349 89.7829C45.4349 89.7829 30.4251 110.592 31.1573 118.988C31.8895 127.385 41.4079 264.285 41.4079 264.285L63.7396 265.38L57.1499 166.812L62.6413 140.162L76.1867 264.285L103.644 265.015L79.1155 104.021L74.3562 89.7829H45.4349Z" fill="#06232D"/>
<path d="M50.5601 26.2612C50.5601 26.2612 55.3193 35.0228 49.0957 40.8639C42.8721 46.705 39.9434 62.4029 39.9434 62.4029L75.0883 59.8474L72.1595 40.1338C72.1595 40.1338 64.4716 35.3879 66.302 26.9913L50.5601 26.2612Z" fill="#A0616A"/>
<path opacity="0.1" d="M50.5601 26.2612C50.5601 26.2612 55.3193 35.0228 49.0957 40.8639C42.8721 46.705 39.9434 62.4029 39.9434 62.4029L75.0883 59.8474L72.1595 40.1338C72.1595 40.1338 64.4716 35.3879 66.302 26.9913L50.5601 26.2612Z" fill="#06232D"/>
<path d="M44.7012 49.6256C44.7012 49.6256 46.8977 56.1968 56.4162 55.4667C62.2112 54.9842 67.772 52.9678 72.5242 49.6256V92.3385L43.2368 91.2433V65.3235L44.7012 49.6256Z" fill="#F0F729"/>
<path d="M51.5274 37.3805L48.7293 39.4037L31.889 47.4352L37.7465 77.7358L41.7735 84.307V92.3385L31.889 106.211C29.6671 116.042 28.4407 126.071 28.2281 136.147C27.862 152.94 32.2551 148.559 34.4517 148.194C36.6482 147.829 41.4074 146.734 41.4074 146.734L33.7195 110.957L46.5327 92.3385L48.7293 85.0371C48.7293 85.0371 47.9971 67.879 45.0683 60.9427C45.0683 60.9427 50.6645 42.6587 51.5274 37.3805Z" fill="#CAC9C7"/>
<path d="M66.9198 33.9276L73.6238 40.4989L86.8031 44.5146L80.5796 78.8309L76.9186 86.1323L77.6508 93.4336C77.6508 93.4336 91.3694 108.106 93.3928 137.242C94.4555 152.543 92.2589 151.813 92.2589 151.813L65.2037 151.479L60.8105 90.8781L69.2307 45.2447L66.9198 33.9276Z" fill="#CAC9C7"/>
<path d="M81.3108 45.2448L86.8022 44.5146C86.8022 44.5146 90.097 48.8954 90.4631 52.181C90.8292 55.4666 96.6867 110.957 96.6867 110.957L102.544 121.544C102.544 121.544 102.178 123.369 99.2493 123.369H96.3206L95.2223 127.75C95.2223 127.75 93.0258 119.353 84.6056 123.734L81.3108 122.639L83.5074 118.623C83.5074 118.623 81.3108 99.2747 81.3108 90.148C81.3108 81.0213 80.5786 71.1645 80.5786 71.1645L81.3108 45.2448Z" fill="#CAC9C7"/>
<path d="M35.916 47.0701L31.8889 47.4351L22.7366 82.8467C22.7366 82.8467 19.0757 106.211 19.8079 107.306C20.5401 108.401 19.8079 110.227 19.0757 110.957C18.3435 111.687 22.0044 121.909 25.6654 121.544C29.3263 121.179 30.7907 120.084 30.7907 120.084C30.7907 120.084 27.4958 110.592 35.916 107.306L38.1125 100.005L35.916 87.9576L38.8447 71.1645L35.916 47.0701Z" fill="#CAC9C7"/>
<path d="M71.0609 24.6185C71.3641 24.6185 71.61 23.8013 71.61 22.7932C71.61 21.785 71.3641 20.9678 71.0609 20.9678C70.7576 20.9678 70.5117 21.785 70.5117 22.7932C70.5117 23.8013 70.7576 24.6185 71.0609 24.6185Z" fill="#A0616A"/>
<path d="M46.1668 24.6185C46.4701 24.6185 46.716 23.8013 46.716 22.7932C46.716 21.785 46.4701 20.9678 46.1668 20.9678C45.8635 20.9678 45.6177 21.785 45.6177 22.7932C45.6177 23.8013 45.8635 24.6185 46.1668 24.6185Z" fill="#A0616A"/>
<path d="M58.6143 33.9277C65.2864 33.9277 70.6953 28.5339 70.6953 21.8804C70.6953 15.2269 65.2864 9.83321 58.6143 9.83321C51.9421 9.83321 46.5332 15.2269 46.5332 21.8804C46.5332 28.5339 51.9421 33.9277 58.6143 33.9277Z" fill="#A0616A"/>
<path d="M53.3059 17.3172L52.9972 20.2377H61.3599L62.4582 18.0473L62.2268 20.2377H72.3427L65.3869 9.28568L50.011 9.65074L46.3501 20.2377H51.8415L53.3059 17.3172Z" fill="#06232D"/>
</g>
<defs>
<clipPath id="clip0">
<rect width="120" height="96" rx="4" fill="white"/>
</clipPath>
</defs>
</svg>
