<svg width="24" height="24" viewBox="0 0 24 24" fill="none" xmlns="http://www.w3.org/2000/svg">
<g clip-path="url(#clip0)">
<path d="M14.8549 1.5H8.77428C8.57106 1.5 8.40828 1.66871 8.40384 1.87841C8.28102 7.77294 5.2934 13.3675 0.151136 17.3302C-0.0121227 17.456 -0.0493167 17.6923 0.0700404 17.8625L3.62774 22.9404C3.74878 23.1132 3.98459 23.1522 4.1506 23.0252C7.3659 20.5637 9.95214 17.5942 11.8146 14.3028C13.6771 17.5942 16.2634 20.5637 19.4788 23.0252C19.6446 23.1522 19.8805 23.1132 20.0017 22.9404L23.5594 17.8625C23.6785 17.6923 23.6413 17.456 23.4782 17.3302C18.3358 13.3675 15.3482 7.77294 15.2255 1.87841C15.2211 1.66871 15.0581 1.5 14.8549 1.5Z" fill="#FF875B"/>
</g>
<defs>
<clipPath id="clip0">
<rect width="24" height="21.6774" fill="white" transform="translate(0 1.5)"/>
</clipPath>
</defs>
</svg>
