<svg width="24" height="24" viewBox="0 0 24 24" fill="none" xmlns="http://www.w3.org/2000/svg">
<g clip-path="url(#clip0)">
<path d="M5.96532 11.7894L3.43263 9.25671L0.893555 11.7894L3.42625 14.3221L5.96532 11.7894ZM12.1216 17.9457L16.4661 13.6012L18.9988 16.1339L12.1216 23.0175L5.23805 16.1339L7.77074 13.6012L12.1216 17.9457ZM20.8106 14.3221L18.2779 11.7894L20.8106 9.25671L23.3433 11.7894L20.8106 14.3221ZM12.1216 5.63311L7.77712 9.9776L5.24443 7.44491L12.1216 0.561346L18.9988 7.44491L16.4661 9.9776L12.1216 5.63311ZM12.1216 9.25671L14.6543 11.7894L12.1216 14.3221L9.58254 11.7894L12.1216 9.25671Z" fill="#F0B90B"/>
</g>
<defs>
<clipPath id="clip0">
<rect width="22.7368" height="24" fill="white" transform="matrix(1 0 0 -1 0.75 24)"/>
</clipPath>
</defs>
</svg>
