<svg width="121" height="120" viewBox="0 0 121 120" fill="none" xmlns="http://www.w3.org/2000/svg">
<path d="M54.5 19V14C54.5 10.6863 57.1863 8 60.5 8V8C63.8137 8 66.5 10.6863 66.5 14V19M66.5 45V55M54.5 45V55M66.5 81V112H54.5V81" stroke="#06232D" stroke-width="2.5"/>
<path d="M29.2265 30.9828L15.75 21.3567V19.25H96.0515L111.534 32L96.0515 44.75H15.75V42.6433L29.2265 33.0172L30.6506 32L29.2265 30.9828Z" stroke="#06232D" stroke-width="2.5"/>
<path d="M92.7735 69.0172L106.25 78.6433L106.25 80.75L25.9485 80.75L10.4663 68L25.9485 55.25L106.25 55.25L106.25 57.3567L92.7735 66.9828L91.3494 68L92.7735 69.0172Z" stroke="#06232D" stroke-width="2.5"/>
<path d="M92.5 60L28.5 60L20.5 68L28.5 76L74.5 76M86.5 76L80.5 76" stroke="#92918F" stroke-width="2.5" stroke-linecap="round"/>
<path d="M30.5 24L94.5 24L102.5 32L94.5 40L48.5 40M36.5 40L42.5 40" stroke="#FFB78E" stroke-width="2.5" stroke-linecap="round"/>
</svg>
