<svg width="75" height="80" viewBox="0 0 75 80" fill="none" xmlns="http://www.w3.org/2000/svg">
<path fill-rule="evenodd" clip-rule="evenodd" d="M37.4673 12.2333C37.4781 12.2334 37.4889 12.2334 37.4998 12.2334C37.5091 12.2334 37.5185 12.2334 37.5279 12.2334C46.0582 12.2495 54.2354 15.6429 60.2709 21.6722C66.313 27.708 69.7157 35.893 69.7333 44.4333C69.7399 50.8099 67.8551 57.0451 64.3173 62.3503C60.7794 67.6554 55.7476 71.792 49.8583 74.2368C43.969 76.6816 37.4869 77.3247 31.2321 76.0847C24.9772 74.8447 19.2307 71.7774 14.7194 67.2709C10.2082 62.7643 7.13493 57.0209 5.8885 50.7673C4.64206 44.5138 5.27844 38.031 7.71712 32.1392C10.1558 26.2474 14.2872 21.2113 19.5887 17.6679C24.8811 14.1307 31.1021 12.2398 37.4673 12.2333ZM33.2221 10.229C32.8651 9.80031 32.5727 9.31806 32.3568 8.79704C31.9355 7.77986 31.8253 6.66059 32.0401 5.58076C32.2549 4.50094 32.785 3.50905 33.5635 2.73054C34.3421 1.95203 35.3339 1.42185 36.4138 1.20706C37.4936 0.992271 38.6129 1.10251 39.63 1.52384C40.6472 1.94517 41.5166 2.65866 42.1283 3.57409C42.74 4.48953 43.0664 5.56578 43.0664 6.66677C43.0664 7.39779 42.9225 8.12166 42.6427 8.79704C42.4264 9.31914 42.1323 9.80436 41.7712 10.2365C44.8058 10.6185 47.7923 11.4047 50.6488 12.5871C56.9487 15.1948 62.3336 19.6125 66.1223 25.2812C69.9111 30.9499 71.9333 37.615 71.9333 44.4333C71.9245 53.566 68.295 62.3225 61.8404 68.7834C55.3857 75.2443 46.6327 78.8823 37.5 78.9C30.6817 78.9066 24.0147 76.8908 18.3423 73.1075C12.6699 69.3243 8.24702 63.9436 5.63321 57.6463C3.0194 51.3489 2.33209 44.4177 3.65822 37.7297C4.98436 31.0416 8.26436 24.8971 13.0833 20.0735C17.9022 15.2499 24.0435 11.964 30.7303 10.6314C31.5577 10.4665 32.3889 10.3324 33.2221 10.229ZM37.9467 9.97C37.6469 9.96582 37.347 9.96556 37.047 9.96921C36.981 9.96015 36.9151 9.94911 36.8495 9.93605C36.2029 9.80743 35.6089 9.48996 35.1427 9.02379C34.6766 8.55761 34.3591 7.96367 34.2305 7.31707C34.1019 6.67046 34.1679 6.00024 34.4202 5.39116C34.6725 4.78207 35.0997 4.26147 35.6479 3.8952C36.196 3.52893 36.8405 3.33343 37.4998 3.33343C38.3838 3.33343 39.2317 3.68462 39.8568 4.30974C40.4819 4.93487 40.8331 5.78271 40.8331 6.66677C40.8331 7.32604 40.6376 7.9705 40.2713 8.51867C39.9051 9.06683 39.3845 9.49407 38.7754 9.74636C38.5085 9.8569 38.2299 9.93168 37.9467 9.97ZM37.4907 69.9999C32.4373 69.9981 27.4976 68.4988 23.2957 65.6912C19.0913 62.8819 15.8143 58.8889 13.8793 54.2172C12.6736 51.3065 12.0226 48.2138 11.9417 45.0962C11.9049 45.0432 11.8726 44.9871 11.8453 44.9282C11.7755 44.7785 11.7394 44.6152 11.7394 44.45C11.7394 44.2848 11.7755 44.1216 11.8453 43.9718C11.8724 43.9134 11.9044 43.8577 11.9408 43.8051C11.9766 42.3472 12.1373 40.8887 12.4244 39.4455C13.4109 34.486 15.8459 29.9305 19.4214 26.3549C22.997 22.7794 27.5525 20.3444 32.512 19.3579C37.4714 18.3714 42.612 18.8777 47.2837 20.8128C50.2919 22.0588 53.0187 23.8612 55.3292 26.1093C55.3441 26.1148 55.3589 26.1205 55.3737 26.1266C55.5081 26.1823 55.6302 26.2639 55.7331 26.3668C55.8359 26.4696 55.9175 26.5918 55.9732 26.7262C55.9807 26.7442 55.9876 26.7623 55.9941 26.7806C57.0086 27.8435 57.934 28.9965 58.7577 30.2292C61.4506 34.2594 62.9399 38.9682 63.0587 43.8052C63.0951 43.8578 63.1271 43.9135 63.1542 43.9718C63.2239 44.1216 63.26 44.2848 63.26 44.45C63.26 44.6152 63.2239 44.7785 63.1542 44.9282C63.1266 44.9875 63.0941 45.044 63.057 45.0973C62.879 51.6345 60.2044 57.8659 55.5684 62.5019C50.7783 67.292 44.285 69.9881 37.5111 69.9999L37.5001 70L37.4907 69.9999ZM54.8429 28.8236C58.4449 32.8253 60.5535 37.9528 60.8072 43.3333H56.3997C56.2369 43.3051 56.0699 43.3128 55.9104 43.3559C55.7509 43.399 55.6028 43.4765 55.4764 43.5829C55.35 43.6892 55.2483 43.822 55.1786 43.9718C55.1089 44.1216 55.0728 44.2848 55.0728 44.45C55.0728 44.6152 55.1089 44.7785 55.1786 44.9282C55.2483 45.078 55.35 45.2108 55.4764 45.3172C55.6028 45.4235 55.7509 45.501 55.9104 45.5441C56.0699 45.5872 56.2369 45.5949 56.3997 45.5667H60.8056C60.6005 49.7838 59.2543 53.8742 56.9007 57.3966C56.2545 58.3637 55.5397 59.2771 54.7636 60.1306L51.6331 57.0001C51.5307 56.8963 51.4088 56.8139 51.2743 56.7576C51.1398 56.7014 50.9955 56.6724 50.8497 56.6724C50.704 56.6724 50.5596 56.7014 50.4252 56.7576C50.2907 56.8139 50.1687 56.8963 50.0664 57.0001C49.8547 57.2126 49.7358 57.5002 49.7358 57.8001C49.7358 58.1 49.8547 58.3877 50.0664 58.6001L53.1933 61.7005C51.2131 63.5003 48.9274 64.9556 46.4291 65.9905C43.9268 67.0269 41.2772 67.6143 38.6001 67.7407V63.3333C38.6001 63.0416 38.4842 62.7618 38.2779 62.5555C38.0716 62.3492 37.7918 62.2333 37.5001 62.2333C37.2083 62.2333 36.9285 62.3492 36.7222 62.5555C36.516 62.7618 36.4001 63.0416 36.4001 63.3333V67.7407C35.2451 67.6862 34.0911 67.5457 32.9477 67.3183C28.786 66.4905 24.936 64.5451 21.8063 61.7006L24.9333 58.6001C25.145 58.3877 25.2638 58.1 25.2638 57.8001C25.2638 57.5002 25.145 57.2126 24.9333 57.0001C24.8309 56.8963 24.709 56.8139 24.5745 56.7576C24.44 56.7014 24.2957 56.6724 24.15 56.6724C24.0042 56.6724 23.8599 56.7014 23.7254 56.7576C23.5909 56.8139 23.469 56.8963 23.3666 57.0001L20.2361 60.1307C17.3896 57.0003 15.4429 53.1488 14.6148 48.9854C14.3896 47.8531 14.2496 46.7104 14.194 45.5667H18.5997C18.7625 45.5949 18.9295 45.5872 19.089 45.5441C19.2485 45.501 19.3967 45.4235 19.5231 45.3172C19.6495 45.2108 19.7511 45.078 19.8209 44.9282C19.8906 44.7785 19.9267 44.6152 19.9267 44.45C19.9267 44.2848 19.8906 44.1216 19.8209 43.9718C19.7511 43.822 19.6495 43.6892 19.5231 43.5829C19.3967 43.4765 19.2485 43.399 19.089 43.3559C18.9295 43.3128 18.7625 43.3051 18.5997 43.3333H14.1924C14.3187 40.6561 14.9061 38.0063 15.9426 35.504C16.9811 32.9967 18.4432 30.7037 20.2518 28.7186L23.4 31.8668C23.4961 31.9744 23.6145 32.0599 23.7468 32.1174C23.8791 32.1749 24.0224 32.2031 24.1666 32.2001C24.3156 32.2016 24.4633 32.1728 24.6009 32.1155C24.7384 32.0582 24.8628 31.9736 24.9666 31.8668C25.0704 31.7644 25.1529 31.6425 25.2091 31.508C25.2654 31.3735 25.2944 31.2292 25.2944 31.0834C25.2944 30.9377 25.2654 30.7933 25.2091 30.6589C25.1529 30.5244 25.0704 30.4024 24.9666 30.3001L21.82 27.1535C22.6685 26.3836 23.576 25.6741 24.5365 25.0323C28.0682 22.6725 32.171 21.3254 36.4001 21.1259V25.5667C36.4001 25.8584 36.516 26.1382 36.7222 26.3445C36.9285 26.5508 37.2083 26.6667 37.5001 26.6667C37.7918 26.6667 38.0716 26.5508 38.2779 26.3445C38.4842 26.1382 38.6001 25.8584 38.6001 25.5667V21.1259C44.0488 21.3829 49.238 23.5421 53.2613 27.2281L50.0331 30.3001C49.9293 30.4024 49.8468 30.5244 49.7906 30.6589C49.7343 30.7933 49.7053 30.9377 49.7053 31.0834C49.7053 31.2292 49.7343 31.3735 49.7906 31.508C49.8468 31.6425 49.9293 31.7644 50.0331 31.8668C50.1369 31.9736 50.2613 32.0582 50.3988 32.1155C50.5364 32.1728 50.6841 32.2016 50.8331 32.2001C51.0093 32.2367 51.1921 32.225 51.3622 32.1663C51.5324 32.1077 51.6835 32.0042 51.7997 31.8668L54.8429 28.8236ZM39.9632 48.4679L36.7403 45.257L33.4665 42L29.4331 52.5L39.9632 48.4679ZM26.4665 54.0333L31.9643 39.7783L31.9666 39.7667C32.0031 39.5838 32.087 39.4137 32.2098 39.2733C32.3078 39.1613 32.4279 39.0714 32.5621 39.0089C32.6474 38.9618 32.7384 38.9252 32.8331 38.9L32.8425 38.8981L47.0999 33.3334C47.3038 33.2533 47.5269 33.236 47.7407 33.2835C47.9544 33.331 48.1492 33.4412 48.2999 33.6001C48.4503 33.7494 48.5528 33.9401 48.5944 34.1478C48.6359 34.3556 48.6147 34.5711 48.5333 34.7667L43.0504 49.0155C43.0467 49.055 43.0409 49.0943 43.0331 49.1333C42.9966 49.3162 42.9127 49.4863 42.7899 49.6267C42.6671 49.7671 42.5096 49.8728 42.3331 49.9333L27.8998 55.4666C27.776 55.5305 27.6391 55.5647 27.4998 55.5666C27.2016 55.556 26.9174 55.4375 26.6998 55.2333C26.5503 55.0765 26.4488 54.8801 26.4075 54.6675C26.3661 54.4548 26.3866 54.2347 26.4665 54.0333ZM45.7333 36.3667L35.0574 40.4242L36.1432 41.51L41.6999 46.9001L45.7333 36.3667Z" fill="#06232D"/>
</svg>
