<svg width="160" height="160" viewBox="0 0 160 160" fill="none" xmlns="http://www.w3.org/2000/svg">
<g clip-path="url(#clip0)">
<path fill-rule="evenodd" clip-rule="evenodd" d="M69.6282 52.3279H57.8901C57.3599 52.3279 56.9298 52.7602 56.9298 53.2932V62.6619L46.9367 70.7943C46.7113 70.9777 46.5806 71.2533 46.5806 71.5446V114.59C46.5806 115.123 47.0104 115.556 47.5408 115.556H111.77C111.869 115.556 111.964 115.541 112.054 115.513C112.203 115.467 112.342 115.384 112.458 115.264C112.647 115.069 112.737 114.814 112.73 114.562V71.8652C112.73 71.8612 112.73 71.8573 112.73 71.8533C112.73 71.849 112.73 71.8447 112.73 71.8403V71.5446C112.73 71.2533 112.599 70.9775 112.374 70.7943L102.061 62.4014V53.2932C102.061 52.7602 101.631 52.3279 101.101 52.3279H89.6825L80.2596 44.6595C79.9072 44.3727 79.4035 44.3728 79.0511 44.6595L69.6282 52.3279ZM72.6808 52.3279H86.6303L79.6554 46.6519L72.6808 52.3279ZM69.9657 54.2585L69.9684 54.2585H89.3425L89.3451 54.2585H100.141V80.0622L84.6813 92.6429C83.8077 93.3538 82.7943 93.8679 81.7183 94.1577H77.5926C76.5167 93.8679 75.5033 93.3538 74.6296 92.6429L72.2564 90.7116C72.2467 90.7006 72.2367 90.6899 72.2264 90.6793C72.1615 90.6122 72.0891 90.5567 72.012 90.5127L58.8505 79.802V63.1225C58.8505 63.1166 58.8504 63.1106 58.8503 63.1047V54.2585H69.9657ZM102.061 64.8854V78.4993L110.426 71.6923L102.061 64.8854ZM89.3705 91.3109L110.81 112.302V73.8639L89.3705 91.3109ZM87.8674 92.5341L85.8898 94.1434C85.8751 94.1554 85.8604 94.1673 85.8456 94.1792C84.7306 95.0763 83.4643 95.7088 82.0813 96.0592C82.0769 96.0604 82.0725 96.0614 82.068 96.0625C81.5922 96.1825 81.1076 96.2668 80.6193 96.3147C80.2998 96.3463 79.9781 96.3624 79.6555 96.3624C79.3376 96.3624 79.0206 96.3468 78.7057 96.3161C78.2117 96.2683 77.7215 96.1834 77.2401 96.0619C77.2365 96.061 77.233 96.0601 77.2294 96.0592C75.8279 95.704 74.5467 95.0595 73.4211 94.1434L71.5881 92.6517L50.1676 113.625H109.408L87.8674 92.5341ZM56.9298 78.239V65.1458L48.8852 71.6924L56.9298 78.239ZM70.085 91.4285L48.501 73.8638V112.562L70.085 91.4285Z" fill="#06232D"/>
<circle cx="79.6558" cy="72.5582" r="12.2997" stroke="#06232D" stroke-width="1.86047"/>
<path fill-rule="evenodd" clip-rule="evenodd" d="M83.9529 68.1736C84.3766 67.7703 85.0438 67.7753 85.4613 68.1851C85.8789 68.5948 85.8965 69.2618 85.5012 69.693L79.7276 76.9137C79.527 77.1298 79.2471 77.2549 78.9523 77.2604C78.6575 77.2658 78.3732 77.1511 78.1648 76.9426L74.3359 73.1138C74.0456 72.8432 73.9261 72.4358 74.0243 72.0513C74.1225 71.6667 74.4227 71.3665 74.8072 71.2683C75.1918 71.1701 75.5992 71.2896 75.8698 71.5799L78.8999 74.6086L83.9254 68.2055C83.9344 68.1943 83.9441 68.1837 83.9543 68.1736H83.9529Z" fill="#06232D"/>
</g>
<circle cx="80" cy="80" r="77.037" stroke="#E5E4E2" stroke-width="5.92593"/>
<path d="M152.289 53.3728C157.328 67.053 158.382 81.8823 155.328 96.1377C152.274 110.393 145.238 123.489 135.036 133.904C124.835 144.32 111.888 151.627 97.6995 154.976C83.5107 158.326 68.6627 157.58 54.8807 152.827" stroke="#FFB78E" stroke-width="5.92593" stroke-linecap="round"/>
<defs>
<clipPath id="clip0">
<rect width="66.1499" height="71.1111" fill="white" transform="translate(46.5806 44.4444)"/>
</clipPath>
</defs>
</svg>
