<svg width="132" height="132" viewBox="0 0 132 132" fill="none" xmlns="http://www.w3.org/2000/svg">
<path fill-rule="evenodd" clip-rule="evenodd" d="M77.4124 6.86662C77.2732 6.27525 76.681 5.90866 76.0897 6.0478C75.4983 6.18694 75.1317 6.77914 75.2709 7.3705C75.5805 8.6864 75.7278 10.913 75.1233 13.1762C74.5258 15.4126 73.2087 17.646 70.6085 19.1318C66.844 21.283 64.461 23.6278 62.9778 26.5235C61.5107 29.3879 60.9814 32.6852 60.7195 36.6132C60.6791 37.2193 61.1377 37.7435 61.7439 37.7839C62.3501 37.8243 62.8742 37.3657 62.9146 36.7595C63.1715 32.9065 63.6797 29.979 64.9359 27.5264C66.1761 25.1051 68.2023 23.0407 71.7 21.042C74.9097 19.2079 76.532 16.4268 77.2487 13.744C77.9583 11.0879 77.7944 8.4902 77.4124 6.86662ZM126.486 50.2018C126.794 49.6784 126.62 49.0041 126.097 48.6957C125.573 48.3873 124.899 48.5616 124.59 49.085C123.904 50.2497 122.471 51.9601 120.469 53.1769C118.491 54.3794 115.995 55.082 113.09 54.3574C108.883 53.3083 105.54 53.3544 102.466 54.4206C99.4255 55.4754 96.7631 57.4913 93.8579 60.1478C93.4095 60.5577 93.3784 61.2535 93.7883 61.7019C94.1983 62.1502 94.8941 62.1813 95.3424 61.7714C98.1923 59.1656 100.584 57.4022 103.187 56.4991C105.757 55.6075 108.648 55.5173 112.557 56.492C116.144 57.3865 119.239 56.4993 121.612 55.0568C123.961 53.6287 125.639 51.6389 126.486 50.2018Z" fill="#FFB78E"/>
<path fill-rule="evenodd" clip-rule="evenodd" d="M52.0232 12.8248C52.0232 9.99445 54.3177 7.7 57.148 7.7C59.9784 7.7 62.2728 9.99445 62.2728 12.8248C62.2728 15.6551 59.9784 17.9496 57.148 17.9496C54.3177 17.9496 52.0232 15.6551 52.0232 12.8248ZM57.148 5.5C53.1027 5.5 49.8232 8.77942 49.8232 12.8248C49.8232 16.8702 53.1027 20.1496 57.148 20.1496C61.1934 20.1496 64.4728 16.8702 64.4728 12.8248C64.4728 8.77942 61.1934 5.5 57.148 5.5ZM107.983 24.2994C105.153 24.2994 102.858 26.5938 102.858 29.4242C102.858 32.2545 105.153 34.549 107.983 34.549C110.814 34.549 113.108 32.2545 113.108 29.4242C113.108 26.5938 110.814 24.2994 107.983 24.2994ZM100.658 29.4242C100.658 25.3788 103.938 22.0994 107.983 22.0994C112.029 22.0994 115.308 25.3788 115.308 29.4242C115.308 33.4695 112.029 36.749 107.983 36.749C103.938 36.749 100.658 33.4695 100.658 29.4242ZM39.2876 44.7318L39.1094 44.91L39.0453 45.1111L38.9561 45.0858C38.8536 45.4481 38.7677 45.8198 38.6979 46.2001L18.2103 110.426L17.5996 112.34L19.514 111.729L84.7897 90.9069L85.0298 90.8303L85.208 90.6521C88.7044 87.1557 88.857 81.3724 86.8069 75.2221C84.7348 69.006 80.3216 62.0719 74.0947 55.845C67.8678 49.6182 60.9337 45.2049 54.7176 43.1329C48.5673 41.0828 42.7841 41.2354 39.2876 44.7318ZM29.1613 82.9233L26.9981 89.7049C28.7981 92.1379 30.8778 94.5589 33.212 96.8931C35.4941 99.1752 37.8871 101.187 40.3087 102.918L47.1569 100.734C43.7943 98.5989 40.444 95.9456 37.3016 92.8032C34.1158 89.6174 31.3816 86.2662 29.1613 82.9233ZM29.9798 80.3577C32.2625 84.0411 35.221 87.7883 38.7688 91.336C42.2751 94.8423 46.0423 97.7106 49.7714 99.8996L78.1575 90.8446C75.5337 90.4368 72.7073 89.5838 69.8203 88.3298C64.3277 85.9439 58.5122 82.063 53.2772 76.8281C47.8523 71.4031 43.7311 65.4926 41.231 59.9549C40.0884 57.424 39.2714 54.941 38.8344 52.5998L29.9798 80.3577ZM20.7977 109.142L26.2271 92.1217C27.8724 94.238 29.717 96.3325 31.7448 98.3603C33.7197 100.335 35.7763 102.117 37.8662 103.697L20.7977 109.142ZM84.0722 88.8291C86.4147 86.1291 86.7249 81.5378 84.8384 75.8783C82.8883 70.0278 78.676 63.3608 72.6275 57.3122C66.579 51.2637 59.912 47.0515 54.0615 45.1013C48.2738 43.1721 43.6033 43.5402 40.9302 46.0298L40.717 46.6982C40.1515 49.9963 40.9614 54.3149 43.1221 59.1011C45.5052 64.3797 49.4712 70.0876 54.7444 75.3609C59.8053 80.4217 65.4062 84.1501 70.647 86.4266C75.8449 88.6845 80.589 89.4725 84.0722 88.8291ZM105.95 67.6119C105.95 67.0044 106.443 66.5119 107.05 66.5119H117.425C118.032 66.5119 118.525 67.0044 118.525 67.6119V77.9865C118.525 78.594 118.032 79.0865 117.425 79.0865H107.05C106.443 79.0865 105.95 78.594 105.95 77.9865V67.6119ZM108.15 68.7119V76.8865H116.325V68.7119H108.15ZM62.495 73.0606C62.1419 72.5663 61.4549 72.4518 60.9605 72.8049C60.4662 73.158 60.3517 73.845 60.7048 74.3394C62.6841 77.1104 68.8153 82.677 77.9904 83.5945C78.5949 83.655 79.134 83.214 79.1944 82.6095C79.2549 82.005 78.8138 81.4659 78.2093 81.4055C69.7844 80.563 64.1823 75.4229 62.495 73.0606Z" fill="#06232D"/>
<path d="M89.3061 33.867L86.3313 48.4757L75.1738 38.6148L89.3061 33.867Z" stroke="#92918F" stroke-width="2.2" stroke-linejoin="round"/>
</svg>
