<svg width="103" height="104" viewBox="0 0 103 104" fill="none" xmlns="http://www.w3.org/2000/svg">
<path fill-rule="evenodd" clip-rule="evenodd" d="M33.8546 32.8721C30.9111 26.5597 33.0952 19.1949 38.8756 16.4995L42.8362 14.6523C42.8676 14.6378 42.8998 14.6253 42.9327 14.6148C44.1728 14.0515 45.4746 13.746 46.7802 13.685C46.8957 13.673 47.0125 13.6847 47.1233 13.7194C47.2341 13.754 47.3367 13.811 47.4248 13.8867C47.5128 13.9624 47.5845 14.0553 47.6354 14.1596C47.6863 14.264 47.7154 14.3777 47.7209 14.4937C47.7264 14.6097 47.7081 14.7255 47.6672 14.8342C47.6263 14.9429 47.5637 15.0421 47.4832 15.1258C47.4026 15.2094 47.3058 15.2758 47.1988 15.3207C47.0917 15.3657 46.9766 15.3883 46.8604 15.3872C45.7351 15.4399 44.6209 15.7033 43.5575 16.1992C38.7113 18.459 36.7672 24.7394 39.3619 30.3038C41.9567 35.8682 48.0188 38.4189 52.8649 36.1591C57.7111 33.8993 59.6538 27.6159 57.0591 22.0515C56.0798 19.9514 54.5978 18.2811 52.8762 17.1353C52.6874 17.0097 52.5562 16.8143 52.5116 16.592C52.4669 16.3697 52.5123 16.1387 52.6379 15.95C52.7635 15.7612 52.959 15.63 53.1812 15.5853C53.4035 15.5406 53.6345 15.5861 53.8233 15.7117C55.8074 17.0321 57.4949 18.9478 58.6059 21.3302C61.5322 27.6058 59.3881 34.9196 53.6831 37.6534L53.6633 37.6663C53.6501 37.6725 53.6375 37.6793 53.6248 37.6862C53.6122 37.693 53.5994 37.6999 53.5862 37.7061L49.6256 39.5529C43.8452 42.2484 36.7981 39.1845 33.8546 32.8721ZM37.3514 20.6528C37.5924 20.0267 37.8844 19.4281 38.2251 18.8588C37.2817 19.5315 36.487 20.3749 35.8651 21.3459L37.3514 20.6528ZM36.8769 22.1907L34.9888 23.0712C34.4241 24.5121 34.1715 26.1135 34.2746 27.7625L34.6674 27.5794C34.7389 27.5416 34.8174 27.5188 34.8981 27.5123C34.9788 27.5058 35.0599 27.5157 35.1366 27.5415C35.2133 27.5673 35.284 27.6084 35.3443 27.6623C35.4047 27.7163 35.4534 27.7819 35.4876 27.8553C35.5218 27.9286 35.5408 28.0081 35.5433 28.089C35.5458 28.1699 35.5319 28.2505 35.5023 28.3258C35.4728 28.4012 35.4283 28.4697 35.3714 28.5273C35.3146 28.5849 35.2466 28.6304 35.1717 28.6609L34.4164 29.0131C34.4943 29.4687 34.6109 29.924 34.7445 30.3791L37.1462 29.2592C37.0038 28.8023 36.8846 28.3436 36.7916 27.8835C36.647 27.9084 36.4983 27.8792 36.3739 27.8015C36.2495 27.7238 36.158 27.603 36.1168 27.4622C36.0757 27.3214 36.0879 27.1704 36.1509 27.0379C36.214 26.9055 36.3236 26.8009 36.4588 26.744L36.6037 26.6764C36.5491 26.1812 36.5172 25.6877 36.5174 25.1977L35.9434 25.4654C35.7996 25.5324 35.635 25.5396 35.4859 25.4854C35.3368 25.4311 35.2153 25.3198 35.1483 25.176C35.0812 25.0322 35.074 24.8676 35.1283 24.7185C35.1826 24.5694 35.2938 24.4479 35.4377 24.3808L36.5826 23.8469C36.6412 23.2839 36.7467 22.7326 36.8769 22.1907ZM37.5552 30.3888L35.1383 31.5158L35.1944 31.6569C35.2598 31.822 35.3252 31.9873 35.4014 32.1508C35.464 32.285 35.5334 32.4133 35.6028 32.5416C35.6288 32.5897 35.6549 32.6379 35.6805 32.6864L37.1578 31.9975C37.322 31.9211 37.5099 31.9131 37.68 31.9751C37.8502 32.0371 37.9888 32.1642 38.0653 32.3283C38.1418 32.4924 38.1501 32.6803 38.0882 32.8505C38.0264 33.0207 37.8995 33.1594 37.7354 33.2361L36.382 33.8672C36.6318 34.2367 36.8946 34.592 37.1763 34.9239L39.5538 33.8152C38.885 32.9741 38.2918 32.0473 37.8152 31.0253C37.7472 30.8795 37.6897 30.7319 37.6322 30.5842C37.6068 30.5191 37.5814 30.4538 37.5552 30.3888ZM40.3723 34.7503L38.0431 35.8364C39.2395 36.9741 40.6273 37.8126 42.0929 38.3062L43.9811 37.4258C43.4809 37.1765 42.9889 36.9032 42.5187 36.585L41.8541 36.8949C41.7825 36.9327 41.704 36.9556 41.6234 36.9621C41.5427 36.9687 41.4615 36.9587 41.3848 36.9329C41.3081 36.9072 41.2374 36.866 41.177 36.8121C41.1167 36.7582 41.0679 36.6925 41.0337 36.6192C40.9995 36.5458 40.9806 36.4663 40.978 36.3853C40.9755 36.3044 40.9894 36.2239 41.019 36.1485C41.0486 36.0732 41.0931 36.0046 41.15 35.947C41.2069 35.8894 41.2748 35.844 41.3498 35.8134L41.4496 35.7669C41.0739 35.4521 40.7167 35.1104 40.3723 34.7503ZM45.4643 38.0509L43.9779 38.744C45.1215 38.8918 46.2785 38.8248 47.4002 38.5347C46.7449 38.4296 46.0989 38.2688 45.4643 38.0509Z" fill="#06232D"/>
<path d="M49.1054 14.4293C49.193 14.2756 49.3262 14.1529 49.4865 14.0782C49.6688 13.993 49.8753 13.9749 50.0696 14.0271C50.3867 14.1085 50.7008 14.2043 51.0117 14.3123C51.1191 14.3479 51.2183 14.4045 51.3036 14.4789C51.389 14.5532 51.4586 14.6437 51.5086 14.7452C51.5586 14.8467 51.5879 14.9572 51.5949 15.0701C51.6018 15.1831 51.5862 15.2962 51.5489 15.4031C51.5117 15.51 51.4536 15.6083 51.378 15.6925C51.3024 15.7767 51.2108 15.845 51.1086 15.8935C51.0063 15.942 50.8955 15.9696 50.7824 15.9748C50.6694 15.9801 50.5565 15.9628 50.4502 15.9239C50.1835 15.8313 49.9163 15.7507 49.6456 15.6812C49.4737 15.6395 49.319 15.5454 49.2029 15.4119C49.0868 15.2784 49.015 15.1122 48.9976 14.9361C48.9801 14.7601 49.0178 14.583 49.1054 14.4293Z" fill="#06232D"/>
<path d="M46.084 22.1932L45.5402 21.0271L46.4165 20.6184L46.9701 21.8056C47.3166 21.7032 47.6567 21.6587 47.9849 21.6708C48.3168 21.6814 48.6262 21.7536 48.917 21.8871C49.2096 22.0149 49.4755 22.2022 49.7159 22.4488C49.9561 22.6952 50.164 22.9996 50.3322 23.3604L48.4652 24.231C48.3675 24.0214 48.2598 23.849 48.1452 23.7182C48.0342 23.5864 47.9198 23.4914 47.7981 23.4314C47.6752 23.3693 47.5505 23.3409 47.4262 23.3437C47.3022 23.3467 47.1799 23.374 47.0584 23.4306C46.9223 23.4941 46.8154 23.5729 46.7388 23.668C46.6629 23.7551 46.6108 23.8534 46.5847 23.9605C46.5618 24.0649 46.5611 24.1796 46.5814 24.3004C46.5993 24.4167 46.6374 24.5308 46.6927 24.6494C46.751 24.7742 46.8168 24.882 46.8927 24.9681C46.9683 25.0533 47.0617 25.1204 47.175 25.1711C47.2878 25.2208 47.4254 25.2602 47.585 25.2852C47.7464 25.3048 47.9387 25.3094 48.1601 25.3039C48.5874 25.2883 48.9894 25.291 49.3649 25.3085C49.7424 25.3206 50.0863 25.3735 50.3999 25.4695C50.7134 25.5654 50.9962 25.7182 51.2449 25.9251C51.4936 26.1316 51.704 26.4206 51.8774 26.7924C52.0302 27.12 52.1135 27.438 52.1286 27.7492C52.1421 28.0566 52.0954 28.3517 51.9896 28.6342C51.8821 28.9127 51.7179 29.1764 51.4968 29.423C51.2782 29.665 51.0102 29.8791 50.6903 30.0676L51.2074 31.1763L50.3282 31.5862L49.8084 30.4715C49.4771 30.5873 49.1348 30.6604 48.7809 30.6895C48.4313 30.7178 48.0909 30.6787 47.7596 30.5736C47.4282 30.4682 47.1196 30.2872 46.8304 30.0322C46.5402 29.7749 46.2877 29.4205 46.0766 28.9677L47.9375 28.0999C48.0526 28.3466 48.1777 28.5402 48.3139 28.6784C48.4483 28.8128 48.5901 28.9069 48.7357 28.9599C48.8818 29.0137 49.028 29.0316 49.1771 29.0152C49.3243 28.9945 49.4658 28.9504 49.6056 28.8852C49.7455 28.82 49.8561 28.743 49.9356 28.6541C50.0175 28.5611 50.0745 28.4624 50.1062 28.3576C50.1361 28.2487 50.145 28.1395 50.1286 28.0272C50.1136 27.9095 50.0771 27.7907 50.0219 27.6723C49.9515 27.5215 49.8727 27.3984 49.7843 27.305C49.6995 27.21 49.5981 27.1379 49.4815 27.0894C49.3667 27.0355 49.2316 27.0015 49.0758 26.9844C48.9198 26.967 48.7389 26.9621 48.5319 26.9695C48.0989 26.992 47.6962 26.9986 47.3204 26.9901C46.9446 26.9817 46.5984 26.9318 46.2866 26.8396C45.9749 26.7477 45.6955 26.596 45.4504 26.3873C45.2053 26.179 44.9963 25.8867 44.8212 25.5111C44.6752 25.1981 44.5972 24.8853 44.5858 24.5726C44.5744 24.2597 44.624 23.9602 44.7371 23.6745C44.8485 23.385 45.0185 23.1169 45.2468 22.8668C45.474 22.6142 45.7541 22.3889 46.084 22.1932Z" fill="#06232D"/>
<path fill-rule="evenodd" clip-rule="evenodd" d="M67.9879 44.8188C65.0444 38.5064 67.2285 31.1416 73.009 28.4461L76.9696 26.5989C77.0009 26.5845 77.0331 26.572 77.066 26.5615C78.3061 25.9982 79.6079 25.6927 80.9136 25.6317C81.0291 25.6197 81.1458 25.6314 81.2566 25.666C81.3674 25.7007 81.47 25.7576 81.5581 25.8333C81.6462 25.9091 81.7178 26.0019 81.7688 26.1063C81.8197 26.2107 81.8488 26.3243 81.8542 26.4403C81.8597 26.5563 81.8414 26.6722 81.8006 26.7809C81.7597 26.8896 81.6971 26.9888 81.6165 27.0725C81.5359 27.1561 81.4392 27.2224 81.3321 27.2674C81.225 27.3123 81.1099 27.335 80.9938 27.3339C79.8684 27.3865 78.7542 27.65 77.6908 28.1459C72.8446 30.4057 70.9005 36.686 73.4953 42.2505C76.09 47.8149 82.1521 50.3656 86.9983 48.1058C91.8445 45.846 93.7872 39.5626 91.1924 33.9982C90.2131 31.8981 88.7311 30.2278 87.0095 29.082C86.8207 28.9564 86.6896 28.7609 86.6449 28.5386C86.6002 28.3163 86.6457 28.0854 86.7712 27.8966C86.8968 27.7078 87.0923 27.5767 87.3146 27.532C87.5369 27.4873 87.7678 27.5328 87.9566 27.6583C89.9407 28.9788 91.6283 30.8945 92.7392 33.2769C95.6655 39.5525 93.5214 46.8663 87.8164 49.6L87.7967 49.613C87.7834 49.6192 87.7708 49.626 87.7581 49.6329C87.7454 49.6397 87.7328 49.6466 87.7195 49.6528L83.759 51.4996C77.9785 54.1951 70.9314 51.1312 67.9879 44.8188ZM71.4847 32.5994C71.7258 31.9734 72.0177 31.3748 72.3585 30.8054C71.4151 31.4782 70.6204 32.3216 69.9984 33.2925L71.4847 32.5994ZM71.0103 34.1374L69.1221 35.0178C68.5575 36.4588 68.3048 38.0602 68.408 39.7092L68.8007 39.5261C68.8723 39.4883 68.9508 39.4655 69.0314 39.4589C69.1121 39.4524 69.1932 39.4624 69.27 39.4882C69.3467 39.514 69.4173 39.5551 69.4777 39.609C69.538 39.6629 69.5867 39.7286 69.6209 39.8019C69.6552 39.8753 69.6741 39.9548 69.6766 40.0357C69.6792 40.1166 69.6652 40.1971 69.6357 40.2725C69.6061 40.3478 69.5616 40.4164 69.5048 40.474C69.4479 40.5316 69.38 40.5771 69.305 40.6076L68.5498 40.9598C68.6276 41.4153 68.7443 41.8707 68.8778 42.3258L71.2795 41.2059C71.1371 40.749 71.018 40.2903 70.9249 39.8302C70.7803 39.855 70.6317 39.8258 70.5072 39.7481C70.3828 39.6704 70.2913 39.5497 70.2502 39.4089C70.2091 39.2681 70.2212 39.117 70.2843 38.9846C70.3473 38.8521 70.4569 38.7475 70.5922 38.6907L70.7371 38.6231C70.6824 38.1279 70.6505 37.6344 70.6507 37.1444L70.0767 37.4121C69.9329 37.4791 69.7683 37.4863 69.6192 37.432C69.4701 37.3778 69.3487 37.2665 69.2816 37.1226C69.2145 36.9788 69.2074 36.8143 69.2616 36.6651C69.3159 36.516 69.4272 36.3946 69.571 36.3275L70.716 35.7936C70.7746 35.2305 70.88 34.6792 71.0103 34.1374ZM71.6885 42.3355L69.2717 43.4625L69.3278 43.6036C69.3931 43.7687 69.4585 43.934 69.5348 44.0975C69.5973 44.2316 69.6666 44.3598 69.736 44.4879C69.762 44.5361 69.7882 44.5845 69.8139 44.633L71.2912 43.9442C71.4554 43.8678 71.6432 43.8597 71.8134 43.9218C71.9835 43.9838 72.1221 44.1108 72.1986 44.275C72.2752 44.4391 72.2834 44.6269 72.2216 44.7972C72.1597 44.9674 72.0328 45.1061 71.8687 45.1828L70.5153 45.8139C70.7651 46.1834 71.028 46.5387 71.3096 46.8705L73.6872 45.7619C73.0183 44.9208 72.4251 43.9939 71.9485 42.9719C71.8806 42.8262 71.8231 42.6787 71.7656 42.5311C71.7403 42.466 71.7148 42.4005 71.6885 42.3355ZM74.5056 46.6969L72.1764 47.783C73.3728 48.9207 74.7606 49.7592 76.2263 50.2529L78.1144 49.3725C77.6143 49.1232 77.1223 48.8498 76.6521 48.5317L75.9875 48.8416C75.9159 48.8794 75.8374 48.9023 75.7567 48.9088C75.676 48.9153 75.5948 48.9054 75.5181 48.8796C75.4414 48.8538 75.3707 48.8127 75.3104 48.7588C75.25 48.7048 75.2013 48.6392 75.167 48.5658C75.1328 48.4925 75.1139 48.4129 75.1114 48.332C75.1088 48.2511 75.1228 48.1705 75.1523 48.0952C75.1819 48.0198 75.2265 47.9513 75.2833 47.8937C75.3402 47.8361 75.4082 47.7906 75.4831 47.7601L75.5829 47.7136C75.2072 47.3988 74.85 47.0571 74.5056 46.6969ZM79.5976 49.9975L78.1113 50.6906C79.2549 50.8385 80.4118 50.7715 81.5335 50.4814C80.8783 50.3763 80.2322 50.2155 79.5976 49.9975Z" fill="#06232D"/>
<path d="M83.2387 26.376C83.3263 26.2223 83.4595 26.0996 83.6199 26.0249C83.8021 25.9397 84.0086 25.9215 84.2029 25.9737C84.5201 26.0551 84.8341 26.151 85.145 26.259C85.2524 26.2946 85.3517 26.3512 85.437 26.4255C85.5223 26.4999 85.592 26.5904 85.642 26.6919C85.692 26.7934 85.7213 26.9039 85.7282 27.0168C85.7351 27.1297 85.7195 27.2429 85.6823 27.3498C85.6451 27.4566 85.587 27.555 85.5114 27.6392C85.4358 27.7234 85.3442 27.7917 85.2419 27.8402C85.1397 27.8886 85.0288 27.9163 84.9158 27.9215C84.8027 27.9267 84.6898 27.9094 84.5835 27.8706C84.3169 27.7779 84.0497 27.6974 83.7789 27.6279C83.607 27.5862 83.4523 27.4921 83.3362 27.3586C83.2201 27.2251 83.1484 27.0588 83.1309 26.8828C83.1134 26.7068 83.1511 26.5297 83.2387 26.376Z" fill="#06232D"/>
<path d="M80.2173 34.1399L79.6735 32.9738L80.5499 32.565L81.1035 33.7523C81.45 33.6498 81.79 33.6054 82.1183 33.6175C82.4502 33.6281 82.7595 33.7002 83.0503 33.8338C83.3429 33.9616 83.6088 34.1489 83.8492 34.3955C84.0895 34.6419 84.2973 34.9463 84.4656 35.3071L82.5986 36.1777C82.5008 35.9681 82.3931 35.7956 82.2785 35.6649C82.1675 35.5331 82.0532 35.438 81.9314 35.378C81.8086 35.316 81.6838 35.2876 81.5595 35.2903C81.4355 35.2934 81.3132 35.3206 81.1918 35.3773C81.0556 35.4407 80.9487 35.5196 80.8721 35.6146C80.7962 35.7018 80.7442 35.8001 80.718 35.9072C80.6952 36.0116 80.6944 36.1263 80.7148 36.2471C80.7327 36.3634 80.7708 36.4774 80.8261 36.5961C80.8843 36.7209 80.9502 36.8287 81.0261 36.9147C81.1016 37 81.195 37.0671 81.3083 37.1178C81.4212 37.1675 81.5588 37.2068 81.7183 37.2319C81.8797 37.2515 82.072 37.2561 82.2934 37.2506C82.7207 37.235 83.1227 37.2376 83.4982 37.2552C83.8758 37.2673 84.2197 37.3202 84.5332 37.4162C84.8468 37.5121 85.1295 37.6649 85.3783 37.8717C85.6269 38.0783 85.8374 38.3672 86.0107 38.739C86.1635 39.0666 86.2468 39.3846 86.262 39.6958C86.2755 40.0032 86.2287 40.2983 86.123 40.5808C86.0154 40.8594 85.8512 41.1231 85.6302 41.3697C85.4115 41.6117 85.1435 41.8257 84.8237 42.0142L85.3407 43.1229L84.4616 43.5329L83.9418 42.4181C83.6104 42.534 83.2681 42.6071 82.9143 42.6361C82.5646 42.6645 82.2242 42.6254 81.8929 42.5202C81.5615 42.4149 81.2529 42.2339 80.9638 41.9789C80.6735 41.7216 80.4211 41.3671 80.2099 40.9144L82.0709 40.0466C82.1859 40.2932 82.311 40.4868 82.4472 40.6251C82.5817 40.7594 82.7234 40.8535 82.869 40.9065C83.0151 40.9604 83.1614 40.9782 83.3104 40.9618C83.4576 40.9412 83.5991 40.8971 83.739 40.8319C83.8788 40.7666 83.9894 40.6896 84.0689 40.6008C84.1508 40.5077 84.2078 40.409 84.2396 40.3042C84.2694 40.1954 84.2783 40.0861 84.2619 39.9738C84.247 39.8561 84.2104 39.7373 84.1552 39.619C84.0849 39.4682 84.006 39.3451 83.9176 39.2517C83.8328 39.1567 83.7314 39.0846 83.6148 39.0361C83.5001 38.9822 83.3649 38.9482 83.2091 38.9311C83.0531 38.9137 82.8723 38.9087 82.6652 38.9162C82.2322 38.9387 81.8296 38.9453 81.4537 38.9368C81.078 38.9284 80.7317 38.8785 80.4199 38.7863C80.1082 38.6944 79.8289 38.5426 79.5837 38.3339C79.3386 38.1256 79.1296 37.8334 78.9545 37.4578C78.8086 37.1448 78.7305 36.832 78.7192 36.5193C78.7077 36.2064 78.7573 35.9069 78.8705 35.6212C78.9819 35.3317 79.1519 35.0636 79.3802 34.8134C79.6073 34.5608 79.8874 34.3355 80.2173 34.1399Z" fill="#06232D"/>
<path fill-rule="evenodd" clip-rule="evenodd" d="M47.409 54.0462C41.6285 56.7416 39.4444 64.1064 42.3879 70.4188C45.3314 76.7312 52.3785 79.7951 58.159 77.0996L62.1195 75.2528C62.1328 75.2466 62.1454 75.2397 62.1581 75.2329C62.1669 75.2281 62.1757 75.2234 62.1847 75.2189C62.1886 75.2169 62.1926 75.2149 62.1967 75.213L62.2164 75.2C67.9214 72.4663 70.0655 65.1525 67.1392 58.8769C66.0283 56.4945 64.3407 54.5788 62.3566 53.2584C62.1678 53.1328 61.9369 53.0873 61.7146 53.132C61.4923 53.1767 61.2968 53.3078 61.1712 53.4966C61.0457 53.6854 61.0002 53.9164 61.0449 54.1387C61.0896 54.3609 61.2207 54.5564 61.4095 54.682C63.1311 55.8278 64.6131 57.4981 65.5924 59.5982C68.1872 65.1626 66.2444 71.446 61.3983 73.7058C56.5521 75.9656 50.49 73.4149 47.8953 67.8505C45.3005 62.286 47.2446 56.0057 52.0908 53.7459C53.1542 53.25 54.2684 52.9865 55.3938 52.9339C55.5099 52.935 55.625 52.9123 55.7321 52.8674C55.8392 52.8224 55.9359 52.7561 56.0165 52.6725C56.097 52.5888 56.1597 52.4896 56.2006 52.3809C56.2414 52.2722 56.2597 52.1563 56.2542 52.0403C56.2488 51.9243 56.2197 51.8107 56.1688 51.7063C56.1178 51.6019 56.0462 51.5091 55.9581 51.4334C55.87 51.3577 55.7674 51.3007 55.6566 51.266C55.5458 51.2314 55.429 51.2197 55.3135 51.2317C54.0079 51.2927 52.7061 51.5982 51.466 52.1615C51.4331 52.172 51.4009 52.1845 51.3695 52.1989L47.409 54.0462ZM46.7584 56.4054C46.4177 56.9748 46.1258 57.5734 45.8847 58.1994L44.3984 58.8925C45.0203 57.9216 45.815 57.0782 46.7584 56.4054ZM43.5221 60.6178L45.4103 59.7374C45.28 60.2792 45.1746 60.8305 45.116 61.3936L43.971 61.9275C43.8272 61.9946 43.7159 62.116 43.6616 62.2651C43.6073 62.4143 43.6145 62.5788 43.6816 62.7227C43.7487 62.8665 43.8701 62.9778 44.0192 63.032C44.1683 63.0863 44.3329 63.0791 44.4767 63.0121L45.0507 62.7444C45.0505 63.2344 45.0824 63.7279 45.1371 64.2231L44.9922 64.2907C44.8569 64.3475 44.7473 64.4521 44.6843 64.5846C44.6212 64.717 44.6091 64.8681 44.6502 65.0089C44.6913 65.1497 44.7828 65.2704 44.9072 65.3481C45.0316 65.4258 45.1803 65.455 45.3249 65.4302C45.418 65.8903 45.5371 66.349 45.6795 66.8059L43.2778 67.9258C43.1443 67.4707 43.0276 67.0153 42.9498 66.5598L43.705 66.2076C43.78 66.1771 43.8479 66.1316 43.9048 66.074C43.9616 66.0164 44.0061 65.9478 44.0357 65.8725C44.0652 65.7971 44.0792 65.7166 44.0766 65.6357C44.0741 65.5548 44.0551 65.4753 44.0209 65.4019C43.9867 65.3286 43.938 65.263 43.8777 65.209C43.8173 65.1551 43.7467 65.114 43.6699 65.0882C43.5932 65.0624 43.5121 65.0524 43.4314 65.0589C43.3508 65.0655 43.2723 65.0883 43.2007 65.1261L42.8079 65.3092C42.7048 63.6602 42.9575 62.0588 43.5221 60.6178ZM43.6717 69.0625L46.0885 67.9355C46.1148 68.0006 46.1402 68.0657 46.1655 68.1309C46.2231 68.2786 46.2806 68.4262 46.3485 68.5719C46.8251 69.594 47.4183 70.5208 48.0872 71.3619L45.7096 72.4705C45.428 72.1387 45.1651 71.7834 44.9153 71.4139L46.2687 70.7828C46.4328 70.7061 46.5597 70.5674 46.6216 70.3972C46.6834 70.2269 46.6752 70.0391 46.5986 69.875C46.5221 69.7108 46.3835 69.5838 46.2134 69.5218C46.0432 69.4597 45.8554 69.4678 45.6911 69.5442L44.2139 70.233C44.1882 70.1846 44.1622 70.1364 44.1361 70.0883C44.0667 69.96 43.9974 69.8317 43.9348 69.6975C43.8585 69.534 43.7931 69.3687 43.7277 69.2035L43.6717 69.0625ZM46.5764 73.383L48.9056 72.2969C49.25 72.6571 49.6072 72.9988 49.9829 73.3136L49.8831 73.3601C49.8082 73.3906 49.7402 73.4361 49.6833 73.4937C49.6265 73.5513 49.5819 73.6198 49.5523 73.6952C49.5228 73.7705 49.5088 73.8511 49.5114 73.932C49.5139 74.0129 49.5328 74.0925 49.567 74.1658C49.6012 74.2392 49.65 74.3048 49.7104 74.3588C49.7707 74.4127 49.8414 74.4538 49.9181 74.4796C49.9948 74.5054 50.076 74.5153 50.1567 74.5088C50.2374 74.5023 50.3159 74.4794 50.3874 74.4416L51.0521 74.1317C51.5223 74.4498 52.0143 74.7232 52.5144 74.9725L50.6263 75.8529C49.1606 75.3592 47.7728 74.5208 46.5764 73.383ZM52.5113 76.2906L53.9976 75.5975C54.6322 75.8155 55.2782 75.9763 55.9335 76.0814C54.8118 76.3715 53.6549 76.4385 52.5113 76.2906Z" fill="#06232D"/>
<path d="M58.0199 51.6249C57.8595 51.6996 57.7263 51.8223 57.6387 51.976C57.5511 52.1297 57.5134 52.3068 57.5309 52.4828C57.5484 52.6589 57.6201 52.8251 57.7362 52.9586C57.8523 53.0921 58.007 53.1862 58.1789 53.2279C58.4496 53.2974 58.7169 53.3779 58.9835 53.4706C59.0898 53.5094 59.2027 53.5267 59.3158 53.5215C59.4288 53.5163 59.5397 53.4886 59.6419 53.4402C59.7442 53.3917 59.8357 53.3234 59.9114 53.2392C59.987 53.155 60.0451 53.0566 60.0823 52.9498C60.1195 52.8429 60.1351 52.7297 60.1282 52.6168C60.1213 52.5039 60.092 52.3934 60.042 52.2919C59.992 52.1904 59.9223 52.0999 59.837 52.0255C59.7517 51.9512 59.6524 51.8946 59.545 51.859C59.2341 51.751 58.9201 51.6551 58.6029 51.5737C58.4086 51.5216 58.2021 51.5397 58.0199 51.6249Z" fill="#06232D"/>
<path d="M54.0735 58.5738L54.6173 59.7399C54.2874 59.9355 54.0073 60.1609 53.7802 60.4135C53.5519 60.6636 53.3819 60.9317 53.2705 61.2212C53.1573 61.5069 53.1077 61.8064 53.1192 62.1193C53.1305 62.432 53.2086 62.7448 53.3545 63.0578C53.5296 63.4334 53.7386 63.7257 53.9837 63.9339C54.2289 64.1426 54.5082 64.2944 54.8199 64.3863C55.1317 64.4785 55.478 64.5284 55.8537 64.5368C56.2296 64.5453 56.6322 64.5387 57.0652 64.5162C57.2723 64.5087 57.4531 64.5137 57.6091 64.5311C57.7649 64.5482 57.9001 64.5822 58.0148 64.6361C58.1314 64.6846 58.2328 64.7567 58.3176 64.8517C58.406 64.9451 58.4849 65.0682 58.5552 65.219C58.6104 65.3373 58.647 65.4561 58.6619 65.5738C58.6783 65.6861 58.6694 65.7954 58.6395 65.9042C58.6078 66.0091 58.5508 66.1077 58.4689 66.2008C58.3894 66.2896 58.2788 66.3667 58.139 66.4319C57.9991 66.4971 57.8576 66.5412 57.7104 66.5618C57.5614 66.5782 57.4151 66.5604 57.269 66.5065C57.1234 66.4535 56.9817 66.3594 56.8472 66.2251C56.711 66.0868 56.5859 65.8932 56.4709 65.6466L54.6099 66.5144C54.821 66.9672 55.0735 67.3216 55.3638 67.5789C55.6529 67.8339 55.9615 68.0149 56.2929 68.1202C56.6242 68.2254 56.9646 68.2645 57.3143 68.2361C57.6681 68.2071 58.0104 68.134 58.3418 68.0181L58.8616 69.1329L59.7407 68.723L59.2237 67.6142C59.5435 67.4257 59.8115 67.2117 60.0302 66.9697C60.2512 66.7231 60.4154 66.4594 60.523 66.1808C60.6287 65.8983 60.6755 65.6032 60.662 65.2958C60.6468 64.9846 60.5635 64.6666 60.4107 64.339C60.2374 63.9672 60.0269 63.6783 59.7783 63.4717C59.5295 63.2649 59.2468 63.1121 58.9332 63.0162C58.6197 62.9202 58.2757 62.8673 57.8982 62.8552C57.5227 62.8377 57.1207 62.835 56.6934 62.8506C56.472 62.8561 56.2797 62.8515 56.1183 62.8319C55.9588 62.8068 55.8211 62.7675 55.7083 62.7178C55.595 62.6671 55.5016 62.6 55.4261 62.5147C55.3502 62.4287 55.2843 62.3209 55.2261 62.1961C55.1708 62.0774 55.1326 61.9634 55.1148 61.8471C55.0944 61.7263 55.0952 61.6116 55.118 61.5072C55.1442 61.4001 55.1962 61.3018 55.2721 61.2146C55.3487 61.1196 55.4556 61.0407 55.5918 60.9773C55.7132 60.9207 55.8355 60.8934 55.9595 60.8903C56.0838 60.8876 56.2086 60.916 56.3314 60.9781C56.4532 61.038 56.5675 61.1331 56.6785 61.2649C56.7931 61.3956 56.9008 61.5681 56.9986 61.7777L58.8656 60.9071C58.6973 60.5463 58.4895 60.2419 58.2492 59.9955C58.0088 59.7489 57.7429 59.5616 57.4503 59.4338C57.1595 59.3002 56.8502 59.2281 56.5183 59.2175C56.19 59.2054 55.85 59.2498 55.5035 59.3523L54.9499 58.165L54.0735 58.5738Z" fill="#06232D"/>
<path d="M4.2302 47.5485L3.30288 46.6662C2.81559 47.1784 2.83574 47.9886 3.34789 48.4759C3.8599 48.963 4.66982 48.943 5.15715 48.4312L4.2302 47.5485Z" fill="#06232D"/>
<path d="M5.15715 48.4312L5.15837 48.43L5.16553 48.4225L5.19858 48.3884C5.22889 48.3572 5.27569 48.3094 5.33858 48.2461C5.46435 48.1196 5.6544 47.9313 5.90549 47.6907C6.40775 47.2093 7.15362 46.5189 8.11717 45.694C10.0457 44.043 12.8385 41.8601 16.2883 39.7378C19.7426 37.6129 22.7516 36.1892 24.8889 35.2992C25.9573 34.8542 26.807 34.543 27.3847 34.3444C27.6734 34.2452 27.8941 34.1741 28.0399 34.1286C28.1128 34.1058 28.1671 34.0895 28.2017 34.0792L28.2389 34.0682L28.2462 34.0661C28.9259 33.8732 29.3216 33.1658 29.1292 32.4859C28.9367 31.8057 28.2292 31.4104 27.549 31.6029L27.8911 32.8116C27.549 31.6029 27.5493 31.6028 27.549 31.6029L27.546 31.6037L27.5412 31.6051L27.5257 31.6096L27.4723 31.6253C27.4267 31.6388 27.3614 31.6586 27.2772 31.6848C27.1089 31.7374 26.8651 31.816 26.5524 31.9235C25.9272 32.1384 25.0266 32.4687 23.9047 32.9359C21.6615 33.87 18.5306 35.3529 14.947 37.5574C11.359 39.7646 8.4581 42.0321 6.45232 43.7493C5.44873 44.6084 4.66733 45.3314 4.1341 45.8425C3.86744 46.0981 3.66269 46.3008 3.52311 46.4412C3.45331 46.5114 3.39979 46.5661 3.36295 46.604L3.32026 46.6481L3.30838 46.6605L3.30483 46.6642L3.30288 46.6662C3.3027 46.6664 3.30288 46.6662 4.2302 47.5485L5.15715 48.4312Z" fill="#06232D"/>
<path d="M13.6909 87.6842L13.6989 87.6759L13.7319 87.6417C13.7622 87.6105 13.809 87.5627 13.8719 87.4995C13.9977 87.3729 14.1877 87.1847 14.4388 86.944C14.9411 86.4627 15.687 85.7722 16.6505 84.9473C18.579 83.2963 21.3718 81.1134 24.8217 78.9912C28.2759 76.8663 31.2849 75.4426 33.4222 74.5525C34.4906 74.1076 35.3404 73.7964 35.918 73.5978C36.2068 73.4985 36.4274 73.4274 36.5733 73.3819C36.6462 73.3592 36.7004 73.3428 36.735 73.3325L36.7723 73.3216L36.7795 73.3195C37.4592 73.1266 37.855 72.4192 37.6625 71.7393C37.47 71.059 36.7625 70.6637 36.0823 70.8562L36.4309 72.0879C36.0823 70.8562 36.0826 70.8561 36.0823 70.8562L36.0745 70.8585L36.0591 70.8629L36.0056 70.8786C35.96 70.8922 35.8947 70.9119 35.8106 70.9382C35.6423 70.9907 35.3984 71.0694 35.0858 71.1769C34.4605 71.3918 33.5599 71.7221 32.4381 72.1892C30.1949 73.1234 27.064 74.6062 23.4803 76.8107C19.8924 79.0179 16.9914 81.2855 14.9857 83.0026C13.9821 83.8618 13.2007 84.5848 12.6674 85.0959C12.4008 85.3514 12.196 85.5542 12.0564 85.6946C11.9866 85.7648 11.9331 85.8194 11.8963 85.8573L11.8536 85.9014L11.8417 85.9138L11.8366 85.9192C11.8364 85.9194 11.8362 85.9196 12.7635 86.8018L11.8366 85.9192C11.3493 86.4314 11.3691 87.2419 11.8812 87.7292C12.3933 88.2164 13.2035 88.1961 13.6909 87.6842Z" fill="#06232D"/>
<path fill-rule="evenodd" clip-rule="evenodd" d="M17.1039 63.7907C17.1038 63.7908 17.104 63.7906 17.1039 63.7907V63.7907ZM17.1039 63.7907L17.1122 63.7821L17.1452 63.7479C17.1755 63.7168 17.2223 63.669 17.2852 63.6057C17.411 63.4792 17.601 63.2909 17.8521 63.0503C18.3544 62.5689 19.1002 61.8784 20.0638 61.0536C21.9923 59.4026 24.7851 57.2197 28.235 55.0974C31.6892 52.9725 34.6982 51.5488 36.8355 50.6588C37.9039 50.2138 38.7537 49.9026 39.3313 49.704C39.6201 49.6048 39.8407 49.5337 39.9866 49.4882C40.0595 49.4654 40.1137 49.4491 40.1483 49.4388L40.1855 49.4278L40.1928 49.4257C40.1927 49.4258 40.1929 49.4257 40.1928 49.4257C40.8725 49.2328 41.2683 48.5254 41.0758 47.8455C40.8833 47.1653 40.1758 46.77 39.4956 46.9625L39.8442 48.1941C39.4956 46.9625 39.4959 46.9624 39.4956 46.9625L39.4927 46.9633L39.4878 46.9647L39.4723 46.9692L39.4189 46.9849C39.3733 46.9984 39.308 47.0182 39.2239 47.0444C39.0555 47.097 38.8117 47.1756 38.499 47.2831C37.8738 47.498 36.9732 47.8283 35.8514 48.2955C33.6082 49.2296 30.4772 50.7125 26.8936 52.917C23.3057 55.1242 20.4047 57.3917 18.3989 59.1089C17.3954 59.968 16.614 60.691 16.0807 61.2021C15.8141 61.4577 15.6093 61.6604 15.4697 61.8008C15.3999 61.871 15.3464 61.9257 15.3096 61.9635L15.2669 62.0077L15.255 62.0201L15.2515 62.0238L15.2498 62.0255C15.2497 62.0257 15.2495 62.0258 16.1767 62.9081L15.2498 62.0255C14.7626 62.5376 14.7824 63.3482 15.2945 63.8355C15.8066 64.3227 16.6166 64.3026 17.1039 63.7907Z" fill="#92918F"/>
<path fill-rule="evenodd" clip-rule="evenodd" d="M71.68 19.5735C74.5077 19.5735 76.8 17.2812 76.8 14.4535C76.8 11.6258 74.5077 9.3335 71.68 9.3335C68.8523 9.3335 66.56 11.6258 66.56 14.4535C66.56 17.2812 68.8523 19.5735 71.68 19.5735ZM71.68 17.0135C73.0938 17.0135 74.24 15.8673 74.24 14.4535C74.24 13.0396 73.0938 11.8935 71.68 11.8935C70.2661 11.8935 69.12 13.0396 69.12 14.4535C69.12 15.8673 70.2661 17.0135 71.68 17.0135Z" fill="#FFB78E"/>
<path fill-rule="evenodd" clip-rule="evenodd" d="M32.4266 94.6668C35.2543 94.6668 37.5466 92.3745 37.5466 89.5468C37.5466 86.7191 35.2543 84.4268 32.4266 84.4268C29.5989 84.4268 27.3066 86.7191 27.3066 89.5468C27.3066 92.3745 29.5989 94.6668 32.4266 94.6668ZM32.4266 92.1068C33.8405 92.1068 34.9866 90.9607 34.9866 89.5468C34.9866 88.133 33.8405 86.9868 32.4266 86.9868C31.0128 86.9868 29.8666 88.133 29.8666 89.5468C29.8666 90.9607 31.0128 92.1068 32.4266 92.1068Z" fill="#FFB78E"/>
<path fill-rule="evenodd" clip-rule="evenodd" d="M87.04 69.0668C87.04 71.8945 84.7477 74.1868 81.92 74.1868C79.0923 74.1868 76.8 71.8945 76.8 69.0668C76.8 66.2391 79.0923 63.9468 81.92 63.9468C84.7477 63.9468 87.04 66.2391 87.04 69.0668ZM84.48 69.0668C84.48 70.4807 83.3338 71.6268 81.92 71.6268C80.5061 71.6268 79.36 70.4807 79.36 69.0668C79.36 67.653 80.5061 66.5068 81.92 66.5068C83.3338 66.5068 84.48 67.653 84.48 69.0668Z" fill="#FFB78E"/>
</svg>
