<svg width="110" height="36" viewBox="0 0 110 36" fill="none" xmlns="http://www.w3.org/2000/svg">
<path d="M0 0V27.8612H4.98945V17.1546H11.2163L16.2057 27.901H21.6343L16.2057 16.5177C19.4788 15.2839 21.4347 12.3385 21.4347 8.55738C21.4347 3.58216 17.962 0 12.5335 0H0ZM12.2142 12.3783H4.98945V4.77621H12.2142C14.8486 4.77621 16.4452 6.20907 16.4452 8.55738C16.4452 10.9853 14.8486 12.3783 12.2142 12.3783Z" fill="white"/>
<path d="M0 31.2238V36H21.6343V31.2238H0Z" fill="white"/>
<path d="M30.9978 0V27.8612H35.9474V25.8711C37.3444 27.4632 39.3402 28.4583 42.0545 28.4583C47.2834 28.4583 51.0355 23.9607 51.0355 18.1894C51.0355 12.4579 47.2834 7.88075 42.0545 7.88075C39.3402 7.88075 37.3444 8.87579 35.9474 10.4679V0H30.9978ZM35.9474 18.1894C35.9474 15.0451 38.023 12.6968 40.9767 12.6968C43.9704 12.6968 46.046 15.0451 46.046 18.1894C46.046 21.3337 44.0103 23.6024 40.9767 23.6024C38.023 23.6024 35.9474 21.3337 35.9474 18.1894Z" fill="white"/>
<path d="M52.1135 22.687C52.1135 25.4333 54.229 28.4583 58.6996 28.4583C61.2542 28.4583 62.9306 27.105 63.689 25.7915V27.8612H68.3192V14.8859C68.3192 10.7465 65.5251 7.92055 60.1365 7.92055C55.7458 7.92055 51.9139 10.4679 52.1534 15.4033L56.7437 15.7615C56.584 13.5326 57.8614 12.0599 60.2563 12.0599C62.4916 12.0599 63.6491 13.254 63.6491 14.6869V15.2839L59.5378 16.0003C54.708 16.8361 52.1135 18.7864 52.1135 22.687ZM56.8235 22.0502C56.8235 20.5377 58.4202 19.9805 60.2164 19.6621L63.6491 19.065V19.7815C63.6491 22.3686 61.9727 24.0403 59.6576 24.0403C57.9412 24.0403 56.8235 23.2442 56.8235 22.0502Z" fill="white"/>
<path d="M70.8386 8.51758V27.8612H75.828V17.3536C75.828 14.2092 77.4247 12.3385 79.8595 12.3385C82.1347 12.3385 83.2523 13.7316 83.2523 16.3983V27.8612H88.2418V15.4829C88.2418 10.8261 85.767 7.88075 81.4961 7.88075C79.0213 7.88075 77.1453 8.83599 75.828 10.3485V8.51758H70.8386Z" fill="white"/>
<path d="M90.759 0V27.8612H95.7484V21.6522L97.2652 20.0999L103.173 27.8612H109.2L100.698 16.6371L108.761 8.51758H102.335L95.7484 15.1247V0H90.759Z" fill="white"/>
</svg>
