<svg width="40" height="40" viewBox="0 0 40 40" fill="none" xmlns="http://www.w3.org/2000/svg">
<rect width="40" height="40" rx="5" fill="url(#paint0_linear)"/>
<path d="M15.6016 11.2344C15.2891 11.3594 14.9844 11.4219 14.6875 11.4219C13.9375 11.4219 13.4219 10.9766 13.1406 10.0859C13.0625 9.85156 13.0078 9.65625 12.9766 9.5C12.9609 9.34375 12.9531 9.20312 12.9531 9.07812C12.9531 8.34375 13.3672 7.79688 14.1953 7.4375C15.8359 6.78125 17.5078 6.25 19.2109 5.84375C20.9141 5.4375 22.6328 5.23438 24.3672 5.23438C25.1797 5.23438 25.9766 5.32031 26.7578 5.49219C27.5547 5.66406 28.2656 5.96094 28.8906 6.38281C29.5156 6.80469 30.0234 7.36719 30.4141 8.07031C30.8047 8.77344 31 9.65625 31 10.7188C31 11.4688 30.8438 12.1875 30.5312 12.875C30.2344 13.5625 29.8359 14.2188 29.3359 14.8438C28.8359 15.4688 28.2656 16.0625 27.625 16.625C26.9844 17.1875 26.3281 17.7031 25.6562 18.1719C24.9844 18.6406 24.3203 19.0703 23.6641 19.4609C23.0078 19.8359 22.4141 20.1641 21.8828 20.4453C21.4297 20.7109 21.2031 20.9844 21.2031 21.2656C21.2031 21.5938 21.4453 21.8516 21.9297 22.0391C23.6016 22.6328 25.3125 23.1875 27.0625 23.7031C28.8125 24.2188 30.5859 24.7969 32.3828 25.4375C33.2266 25.75 33.6484 26.2344 33.6484 26.8906C33.6484 27.2031 33.5547 27.5234 33.3672 27.8516C33.1953 28.1641 33 28.4531 32.7812 28.7188C32.3281 29.3906 31.7656 29.7266 31.0938 29.7266C30.8594 29.7266 30.5703 29.6797 30.2266 29.5859C29.2109 29.1953 28.1172 28.7891 26.9453 28.3672C25.7891 27.9453 24.6016 27.5312 23.3828 27.125C22.1797 26.7031 20.9922 26.3047 19.8203 25.9297C18.6484 25.5391 17.5625 25.1875 16.5625 24.875C16.2031 24.7812 15.9609 24.7344 15.8359 24.7344C15.7109 24.7344 15.6094 24.7656 15.5312 24.8281C15.4688 24.875 15.4375 24.9844 15.4375 25.1562C15.4375 25.2031 15.4453 25.2656 15.4609 25.3438C15.4766 25.4062 15.4844 25.4766 15.4844 25.5547C15.5312 25.7891 15.5859 26.1016 15.6484 26.4922C15.7266 26.8672 15.7969 27.2578 15.8594 27.6641C15.9375 28.0703 16 28.4609 16.0469 28.8359C16.0938 29.1953 16.1172 29.4922 16.1172 29.7266C16.1172 30.6016 15.6406 31.2109 14.6875 31.5547L13.6328 31.8828C13.4766 31.9297 13.3359 31.9609 13.2109 31.9766C13.0859 32.0078 12.9531 32.0234 12.8125 32.0234C11.9531 32.0234 11.4531 31.4922 11.3125 30.4297C10.9375 27.5859 10.4531 24.7812 9.85938 22.0156C9.28125 19.25 8.61719 16.4922 7.86719 13.7422C7.82031 13.5859 7.78906 13.4531 7.77344 13.3438C7.77344 13.2188 7.77344 13.1094 7.77344 13.0156C7.77344 12.1875 8.21875 11.625 9.10938 11.3281C9.4375 11.2188 9.70312 11.1328 9.90625 11.0703C10.125 11.0078 10.2969 10.9609 10.4219 10.9297C10.5625 10.8828 10.6641 10.8516 10.7266 10.8359C10.8047 10.8203 10.875 10.8125 10.9375 10.8125C11.7812 10.8125 12.3281 11.2891 12.5781 12.2422C12.9062 13.4609 13.2109 14.6406 13.4922 15.7812C13.7891 16.9219 14.0547 18.0469 14.2891 19.1562C14.4141 19.7031 14.6406 19.9766 14.9688 19.9766C15.0625 19.9766 15.1719 19.9609 15.2969 19.9297C15.4219 19.8828 15.5703 19.8203 15.7422 19.7422C16.2422 19.4766 16.8438 19.1484 17.5469 18.7578C18.2656 18.3672 19.0078 17.9375 19.7734 17.4688C20.5547 16.9844 21.3203 16.4766 22.0703 15.9453C22.8359 15.4141 23.5156 14.8828 24.1094 14.3516C24.7188 13.8203 25.2109 13.2969 25.5859 12.7812C25.9609 12.2656 26.1484 11.7812 26.1484 11.3281C26.1484 11.0469 26.1016 10.7891 26.0078 10.5547C25.9297 10.3203 25.7734 10.1172 25.5391 9.94531C25.3047 9.77344 24.9844 9.64062 24.5781 9.54688C24.1875 9.45312 23.6875 9.40625 23.0781 9.40625C22.4844 9.40625 21.8594 9.46094 21.2031 9.57031C20.5625 9.66406 19.9219 9.79688 19.2812 9.96875C18.6406 10.1406 18.0078 10.3359 17.3828 10.5547C16.7578 10.7734 16.1641 11 15.6016 11.2344Z" fill="#00042C"/>
<defs>
<linearGradient id="paint0_linear" x1="20" y1="0" x2="20" y2="40" gradientUnits="userSpaceOnUse">
<stop stop-color="#C4C4C4"/>
<stop offset="1" stop-color="white"/>
</linearGradient>
</defs>
</svg>
