<svg width="106" height="33" viewBox="0 0 106 33" fill="none" xmlns="http://www.w3.org/2000/svg">
<path fill-rule="evenodd" clip-rule="evenodd" d="M40.5063 24.421V22.3972C41.3833 23.8139 43.1373 24.8258 45.431 24.8258C50.1533 24.8258 53.2565 21.0817 53.2565 16.0558C53.2565 11.1311 50.4569 7.38702 45.5996 7.38702C43.1373 7.38702 41.3159 8.4664 40.5738 9.64697V0H36.1551V24.421H40.5063ZM48.7703 16.0895C48.7703 19.1253 46.9489 20.8118 44.6552 20.8118C42.3952 20.8118 40.5063 19.0916 40.5063 16.0895C40.5063 13.0538 42.3952 11.401 44.6552 11.401C46.9489 11.401 48.7703 13.0538 48.7703 16.0895ZM21.3542 16.1233C21.3542 19.2265 23.378 20.8456 25.5705 20.8456C27.763 20.8456 29.7868 19.2602 29.7868 16.1233C29.7868 12.9863 27.763 11.401 25.5705 11.401C23.378 11.401 21.3542 12.9863 21.3542 16.1233ZM16.868 16.1233C16.868 10.9962 20.6121 7.31956 25.5705 7.31956C30.5289 7.31956 34.273 10.9962 34.273 16.1233C34.273 21.2166 30.5289 24.927 25.5705 24.927C20.6121 24.927 16.868 21.2166 16.868 16.1233ZM7.5894 11.4347C5.63302 11.4347 4.48618 12.9526 4.48618 14.8752V24.421H0V7.82552H4.35126V9.88309C5.36318 8.16282 7.35329 7.38702 9.14101 7.38702C13.2562 7.38702 15.1451 10.3216 15.1451 13.9645V24.421H10.6589V14.7403C10.6589 12.8851 9.74816 11.4347 7.5894 11.4347ZM59.9101 24.8932C56.3684 24.8932 54.2097 22.4984 54.2097 19.9011C54.2097 16.9328 56.4022 15.28 59.1681 14.8752L63.2495 14.2681C64.1939 14.1332 64.4975 13.6609 64.4975 13.0875C64.4975 11.9069 63.5868 10.9287 61.6979 10.9287C59.7415 10.9287 58.6621 12.1768 58.5272 13.6272L54.547 12.7839C54.8168 10.1867 57.2117 7.31956 61.6641 7.31956C66.9261 7.31956 68.8825 10.2879 68.8825 13.6272V21.79C68.8825 22.667 68.9837 23.8476 69.0849 24.421H64.9697C64.8686 23.9825 64.8011 23.0718 64.8011 22.4309C63.9578 23.7464 62.3725 24.8932 59.9101 24.8932ZM58.6958 19.6313C58.6958 20.6094 59.4042 21.5539 60.8546 21.5539C62.7435 21.5539 64.4975 20.6432 64.4975 17.7086V16.9665L60.7534 17.5399C59.6066 17.7086 58.6958 18.3495 58.6958 19.6313ZM76.1375 14.8752C76.1375 12.9526 77.2843 11.4347 79.2407 11.4347C81.3995 11.4347 82.3102 12.8851 82.3102 14.7403V24.421H86.7964V13.9645C86.7964 10.3216 84.9075 7.38702 80.7923 7.38702C79.0046 7.38702 77.0145 8.16282 76.0026 9.88309V7.82552H71.6513V24.421H76.1375V14.8752ZM99.7516 7.82552H105.621L98.9758 14.8078L105.756 24.421H100.258L95.8726 18.0796L94.0174 20.036V24.421H89.5312V0H94.0174V13.9982L99.7516 7.82552ZM0.0383058 32.1857V27.919H34.4353V32.1857H0.0383058Z" fill="white"/>
</svg>
