<svg width="98" height="32" viewBox="0 0 98 32" fill="none" xmlns="http://www.w3.org/2000/svg">
<path d="M0 0V24.7655H4.43507V15.2485H9.97003L14.4051 24.8009H19.2305L14.4051 14.6824C17.3145 13.5857 19.0531 10.9676 19.0531 7.60656C19.0531 3.18414 15.9662 0 11.1409 0H0ZM10.857 11.003H4.43507V4.24552H10.857C13.1988 4.24552 14.618 5.51918 14.618 7.60656C14.618 9.7647 13.1988 11.003 10.857 11.003Z" fill="#06232D"/>
<path d="M0 27.7545V32H19.2305V27.7545H0Z" fill="#06232D"/>
<path d="M27.5536 0V24.7655H31.9532V22.9966C33.195 24.4117 34.9691 25.2962 37.3817 25.2962C42.0297 25.2962 45.3649 21.2984 45.3649 16.1684C45.3649 11.0737 42.0297 7.00511 37.3817 7.00511C34.9691 7.00511 33.195 7.88959 31.9532 9.30477V0H27.5536ZM31.9532 16.1684C31.9532 13.3734 33.7982 11.286 36.4238 11.286C39.0848 11.286 40.9298 13.3734 40.9298 16.1684C40.9298 18.9633 39.1203 20.9799 36.4238 20.9799C33.7982 20.9799 31.9532 18.9633 31.9532 16.1684Z" fill="#06232D"/>
<path d="M46.3231 20.1662C46.3231 22.6074 48.2036 25.2962 52.1774 25.2962C54.4482 25.2962 55.9383 24.0933 56.6125 22.9258V24.7655H60.7282V13.2319C60.7282 9.55242 58.2446 7.04049 53.4547 7.04049C49.5518 7.04049 46.1457 9.30477 46.3586 13.6918L50.4389 14.0102C50.2969 12.029 51.4323 10.7199 53.5612 10.7199C55.5481 10.7199 56.577 11.7813 56.577 13.055V13.5857L52.9225 14.2225C48.6294 14.9655 46.3231 16.699 46.3231 20.1662ZM50.5098 19.6002C50.5098 18.2557 51.929 17.7604 53.5257 17.4774L56.577 16.9467V17.5835C56.577 19.8832 55.0868 21.3691 53.0289 21.3691C51.5033 21.3691 50.5098 20.6615 50.5098 19.6002Z" fill="#06232D"/>
<path d="M62.9676 7.57118V24.7655H67.4027V15.4254C67.4027 12.6304 68.8219 10.9676 70.9863 10.9676C73.0086 10.9676 74.0021 12.2059 74.0021 14.5763V24.7655H78.4372V13.7626C78.4372 9.62318 76.2374 7.00511 72.441 7.00511C70.2412 7.00511 68.5736 7.85421 67.4027 9.19863V7.57118H62.9676Z" fill="#06232D"/>
<path d="M80.6747 0V24.7655H85.1097V19.2464L86.458 17.8666L91.7091 24.7655H97.0667L89.5093 14.7886L96.6764 7.57118H90.964L85.1097 13.4442V0H80.6747Z" fill="#06232D"/>
</svg>
