<svg width="24" height="24" viewBox="0 0 24 24" fill="none" xmlns="http://www.w3.org/2000/svg">
<path d="M20.6476 2.67419L13.1523 8.24105L14.5384 4.95668L20.6476 2.67419Z" fill="#E2761B" stroke="#E2761B" stroke-width="0.100439" stroke-linecap="round" stroke-linejoin="round"/>
<path d="M3.34473 2.67419L10.7798 8.29378L9.46149 4.95668L3.34473 2.67419Z" fill="#E4761B" stroke="#E4761B" stroke-width="0.100439" stroke-linecap="round" stroke-linejoin="round"/>
<path d="M17.9513 15.5781L15.9551 18.6365L20.2263 19.8116L21.4541 15.6459L17.9513 15.5781Z" fill="#E4761B" stroke="#E4761B" stroke-width="0.100439" stroke-linecap="round" stroke-linejoin="round"/>
<path d="M2.55371 15.6459L3.77405 19.8116L8.04524 18.6365L6.049 15.5781L2.55371 15.6459Z" fill="#E4761B" stroke="#E4761B" stroke-width="0.100439" stroke-linecap="round" stroke-linejoin="round"/>
<path d="M7.80446 10.4105L6.61426 12.2109L10.8553 12.3992L10.7047 7.8418L7.80446 10.4105Z" fill="#E4761B" stroke="#E4761B" stroke-width="0.100439" stroke-linecap="round" stroke-linejoin="round"/>
<path d="M16.1886 10.4105L13.2508 7.78906L13.1528 12.3992L17.3864 12.2109L16.1886 10.4105Z" fill="#E4761B" stroke="#E4761B" stroke-width="0.100439" stroke-linecap="round" stroke-linejoin="round"/>
<path d="M8.04541 18.6366L10.5916 17.3937L8.39193 15.6761L8.04541 18.6366Z" fill="#E4761B" stroke="#E4761B" stroke-width="0.100439" stroke-linecap="round" stroke-linejoin="round"/>
<path d="M13.4014 17.3937L15.955 18.6366L15.601 15.6761L13.4014 17.3937Z" fill="#E4761B" stroke="#E4761B" stroke-width="0.100439" stroke-linecap="round" stroke-linejoin="round"/>
<path d="M15.9546 18.6366L13.4009 17.3937L13.6043 19.0585L13.5817 19.759L15.9546 18.6366Z" fill="#D7C1B3" stroke="#D7C1B3" stroke-width="0.100439" stroke-linecap="round" stroke-linejoin="round"/>
<path d="M8.04492 18.6366L10.4178 19.759L10.4027 19.0585L10.5911 17.3937L8.04492 18.6366Z" fill="#D7C1B3" stroke="#D7C1B3" stroke-width="0.100439" stroke-linecap="round" stroke-linejoin="round"/>
<path d="M10.4558 14.5762L8.33154 13.951L9.8306 13.2655L10.4558 14.5762Z" fill="#233447" stroke="#233447" stroke-width="0.100439" stroke-linecap="round" stroke-linejoin="round"/>
<path d="M13.5366 14.5762L14.1619 13.2655L15.6684 13.951L13.5366 14.5762Z" fill="#233447" stroke="#233447" stroke-width="0.100439" stroke-linecap="round" stroke-linejoin="round"/>
<path d="M8.04506 18.6365L8.40664 15.5781L6.04883 15.6459L8.04506 18.6365Z" fill="#CD6116" stroke="#CD6116" stroke-width="0.100439" stroke-linecap="round" stroke-linejoin="round"/>
<path d="M15.5933 15.5781L15.9548 18.6365L17.9511 15.6459L15.5933 15.5781Z" fill="#CD6116" stroke="#CD6116" stroke-width="0.100439" stroke-linecap="round" stroke-linejoin="round"/>
<path d="M17.3859 12.2108L13.1523 12.3991L13.5441 14.5762L14.1693 13.2654L15.6759 13.9509L17.3859 12.2108Z" fill="#CD6116" stroke="#CD6116" stroke-width="0.100439" stroke-linecap="round" stroke-linejoin="round"/>
<path d="M8.33128 13.9509L9.83788 13.2654L10.4556 14.5762L10.8548 12.3991L6.61377 12.2108L8.33128 13.9509Z" fill="#CD6116" stroke="#CD6116" stroke-width="0.100439" stroke-linecap="round" stroke-linejoin="round"/>
<path d="M6.61377 12.2108L8.39155 15.676L8.33128 13.9509L6.61377 12.2108Z" fill="#E4751F" stroke="#E4751F" stroke-width="0.100439" stroke-linecap="round" stroke-linejoin="round"/>
<path d="M15.6759 13.9509L15.6006 15.676L17.3859 12.2108L15.6759 13.9509Z" fill="#E4751F" stroke="#E4751F" stroke-width="0.100439" stroke-linecap="round" stroke-linejoin="round"/>
<path d="M10.8548 12.3992L10.4556 14.5762L10.9527 17.1449L11.0657 13.7626L10.8548 12.3992Z" fill="#E4751F" stroke="#E4751F" stroke-width="0.100439" stroke-linecap="round" stroke-linejoin="round"/>
<path d="M13.1521 12.3992L12.9487 13.7551L13.0391 17.1449L13.5438 14.5762L13.1521 12.3992Z" fill="#E4751F" stroke="#E4751F" stroke-width="0.100439" stroke-linecap="round" stroke-linejoin="round"/>
<path d="M13.5443 14.5763L13.0396 17.145L13.4011 17.3936L15.6008 15.6761L15.6761 13.951L13.5443 14.5763Z" fill="#F6851B" stroke="#F6851B" stroke-width="0.100439" stroke-linecap="round" stroke-linejoin="round"/>
<path d="M8.33154 13.951L8.39181 15.6761L10.5914 17.3936L10.953 17.145L10.4558 14.5763L8.33154 13.951Z" fill="#F6851B" stroke="#F6851B" stroke-width="0.100439" stroke-linecap="round" stroke-linejoin="round"/>
<path d="M13.5816 19.759L13.6042 19.0584L13.4159 18.8927H10.576L10.4027 19.0584L10.4178 19.759L8.04492 18.6366L8.87355 19.3146L10.5534 20.4822H13.4385L15.1259 19.3146L15.9545 18.6366L13.5816 19.759Z" fill="#C0AD9E" stroke="#C0AD9E" stroke-width="0.100439" stroke-linecap="round" stroke-linejoin="round"/>
<path d="M13.4014 17.3936L13.0399 17.145H10.9532L10.5916 17.3936L10.4033 19.0584L10.5766 18.8927H13.4165L13.6048 19.0584L13.4014 17.3936Z" fill="#161616" stroke="#161616" stroke-width="0.100439" stroke-linecap="round" stroke-linejoin="round"/>
<path d="M20.9645 8.60263L21.6048 5.52918L20.6481 2.67419L13.4014 8.05272L16.1886 10.4105L20.1283 11.5631L21.0021 10.5461L20.6255 10.2749L21.2281 9.72504L20.7611 9.36346L21.3637 8.90395L20.9645 8.60263Z" fill="#763D16" stroke="#763D16" stroke-width="0.100439" stroke-linecap="round" stroke-linejoin="round"/>
<path d="M2.39551 5.52918L3.03581 8.60263L2.62903 8.90395L3.23167 9.36346L2.77216 9.72504L3.37479 10.2749L2.99814 10.5461L3.86443 11.5631L7.80417 10.4105L10.5914 8.05273L3.34466 2.67419L2.39551 5.52918Z" fill="#763D16" stroke="#763D16" stroke-width="0.100439" stroke-linecap="round" stroke-linejoin="round"/>
<path d="M20.1279 11.5632L16.1882 10.4106L17.3859 12.211L15.6006 15.6762L17.9509 15.646H21.4537L20.1279 11.5632Z" fill="#F6851B" stroke="#F6851B" stroke-width="0.100439" stroke-linecap="round" stroke-linejoin="round"/>
<path d="M7.80418 10.4106L3.86445 11.5632L2.55371 15.646H6.049L8.39175 15.6762L6.61397 12.211L7.80418 10.4106Z" fill="#F6851B" stroke="#F6851B" stroke-width="0.100439" stroke-linecap="round" stroke-linejoin="round"/>
<path d="M13.1526 12.3992L13.4012 8.05271L14.5462 4.95667H9.46143L10.5914 8.05271L10.855 12.3992L10.9454 13.7702L10.953 17.145H13.0396L13.0546 13.7702L13.1526 12.3992Z" fill="#F6851B" stroke="#F6851B" stroke-width="0.100439" stroke-linecap="round" stroke-linejoin="round"/>
</svg>
