<svg width="80" height="78" viewBox="0 0 80 78" fill="none" xmlns="http://www.w3.org/2000/svg">
<path d="M21.9371 31.6842C21.5194 31.2794 21.0189 30.97 20.4701 30.7773C19.9213 30.5847 19.3372 30.5134 18.7581 30.5684H14.5476C14.4004 30.5713 14.2589 30.6254 14.1474 30.7215C14.036 30.8176 13.9616 30.9496 13.9371 31.0947L12.0634 42.2105C12.0574 42.2637 12.0628 42.3175 12.0792 42.3685C12.0955 42.4195 12.1225 42.4664 12.1583 42.5061C12.1941 42.5459 12.2379 42.5777 12.2869 42.5993C12.3358 42.6209 12.3888 42.6319 12.4423 42.6316H14.5476C14.6735 42.6261 14.795 42.5831 14.8963 42.5081C14.9976 42.4331 15.0741 42.3294 15.116 42.2105L15.5792 39.1789C15.5948 39.0338 15.6638 38.8996 15.7727 38.8024C15.8816 38.7051 16.0227 38.6518 16.1686 38.6526H17.5371C18.1424 38.7226 18.7556 38.6672 19.3386 38.49C19.9216 38.3129 20.4619 38.0176 20.9259 37.6227C21.39 37.2278 21.7678 36.7416 22.0359 36.1945C22.304 35.6473 22.4567 35.0508 22.4844 34.4421C22.603 33.9706 22.6155 33.4786 22.5208 33.0016C22.4261 32.5247 22.2268 32.0747 21.9371 31.6842ZM19.2634 34.6105C19.0318 36.1684 17.8318 36.1684 16.695 36.1684H16.0423L16.4844 33.2421C16.4988 33.1564 16.5423 33.0783 16.6074 33.0208C16.6726 32.9633 16.7555 32.9299 16.8423 32.9263H17.1371C17.916 32.9263 18.6739 32.9263 19.0318 33.3684C19.1629 33.5439 19.2519 33.7472 19.292 33.9625C19.3322 34.1779 19.3224 34.3996 19.2634 34.6105Z" fill="#253B80"/>
<path d="M31.7685 34.5474H29.6632C29.5776 34.552 29.4954 34.5828 29.4276 34.6354C29.3599 34.6881 29.3099 34.7602 29.2843 34.8421V35.4526L29.1369 35.2211C28.8183 34.9003 28.4311 34.656 28.0045 34.5065C27.5779 34.357 27.1229 34.3062 26.6738 34.3579C25.522 34.3846 24.4183 34.8246 23.5641 35.5976C22.71 36.3706 22.1623 37.4251 22.0211 38.5684C21.9146 39.1298 21.929 39.7075 22.0633 40.2629C22.1977 40.8183 22.4488 41.3388 22.8001 41.7895C23.1294 42.154 23.5377 42.4383 23.9939 42.6208C24.45 42.8032 24.9418 42.8789 25.4316 42.8421C25.9655 42.8478 26.4949 42.7443 26.9872 42.538C27.4796 42.3316 27.9246 42.0267 28.2948 41.6421V42.2526C28.2888 42.3498 28.3205 42.4456 28.3832 42.52C28.4459 42.5945 28.5349 42.642 28.6316 42.6526H30.5053C30.6517 42.6593 30.7953 42.6113 30.9082 42.5179C31.021 42.4245 31.0951 42.2924 31.1159 42.1474L32.2316 34.9684C32.2553 34.9053 32.2595 34.8365 32.2437 34.771C32.2279 34.7054 32.1928 34.6462 32.1429 34.6008C32.093 34.5555 32.0306 34.5261 31.9639 34.5166C31.8971 34.5071 31.8291 34.5178 31.7685 34.5474ZM26.5053 40.6316C26.248 40.6458 25.9906 40.6042 25.7508 40.5098C25.511 40.4153 25.2944 40.2701 25.1159 40.0842C24.9621 39.8705 24.853 39.628 24.7951 39.3712C24.7373 39.1143 24.7318 38.8485 24.779 38.5895C24.8456 38.0143 25.1197 37.4831 25.5499 37.0955C25.9801 36.708 26.5369 36.4906 27.1159 36.4842C27.3768 36.4724 27.6371 36.5192 27.8775 36.6212C28.118 36.7232 28.3325 36.8778 28.5053 37.0737C28.6775 37.2734 28.7998 37.5111 28.862 37.7674C28.9242 38.0236 28.9247 38.2909 28.8632 38.5474C28.8004 39.126 28.5238 39.6604 28.0877 40.0459C27.6516 40.4314 27.0873 40.6402 26.5053 40.6316Z" fill="#253B80"/>
<path d="M42.8422 34.5474H40.7369C40.6363 34.5461 40.5371 34.5706 40.4487 34.6185C40.3602 34.6664 40.2855 34.7361 40.2317 34.8211L37.3474 39.0316L36.1264 34.9263C36.0868 34.8002 36.0086 34.6897 35.9028 34.6104C35.7971 34.5311 35.6691 34.4869 35.5369 34.4842H33.4317C33.3736 34.4839 33.3163 34.4977 33.2648 34.5244C33.2133 34.5512 33.169 34.5901 33.1359 34.6377C33.1027 34.6854 33.0817 34.7404 33.0745 34.798C33.0674 34.8556 33.0743 34.9141 33.0948 34.9684L35.3895 41.7895L33.2843 44.8632C33.2452 44.9169 33.2218 44.9805 33.2168 45.0468C33.2118 45.1131 33.2254 45.1795 33.256 45.2385C33.2866 45.2975 33.333 45.3468 33.3901 45.3809C33.4471 45.415 33.5126 45.4326 33.579 45.4316H35.6843C35.7832 45.4372 35.8819 45.4168 35.9705 45.3725C36.0592 45.3282 36.1347 45.2614 36.1895 45.1789L43.1369 35.0526C43.1607 35.0005 43.1717 34.9434 43.1688 34.8861C43.166 34.8289 43.1494 34.7731 43.1205 34.7236C43.0916 34.6741 43.0513 34.6322 43.0028 34.6016C42.9544 34.5709 42.8993 34.5523 42.8422 34.5474Z" fill="#253B80"/>
<path d="M52.9474 31.6842C52.5289 31.2805 52.0283 30.9719 51.4797 30.7793C50.9311 30.5868 50.3474 30.5148 49.7684 30.5684H45.4105C45.2668 30.568 45.1283 30.6221 45.0228 30.7197C44.9173 30.8174 44.8528 30.9514 44.8421 31.0947L43.0526 42.2105C43.0467 42.2637 43.0521 42.3175 43.0684 42.3685C43.0848 42.4194 43.1118 42.4664 43.1476 42.5061C43.1834 42.5459 43.2272 42.5777 43.2761 42.5993C43.3251 42.6209 43.3781 42.6319 43.4316 42.6316H45.6632C45.7642 42.627 45.8603 42.5862 45.9338 42.5166C46.0072 42.447 46.0531 42.3533 46.0632 42.2526L46.5684 39.0737C46.5883 38.9303 46.6586 38.7987 46.7665 38.7023C46.8745 38.6059 47.0132 38.551 47.1579 38.5474H48.5474C49.1516 38.6111 49.7624 38.5513 50.3428 38.3717C50.9232 38.1922 51.4611 37.8965 51.9238 37.5028C52.3864 37.109 52.7642 36.6253 53.0343 36.0811C53.3044 35.5369 53.461 34.9434 53.4947 34.3368C53.5883 33.8807 53.5879 33.4103 53.4938 32.9542C53.3997 32.4982 53.2138 32.0661 52.9474 31.6842ZM50.2526 34.6737C50.0421 36.2316 48.8421 36.2316 47.6842 36.2316H47.0316L47.4947 33.3053C47.4974 33.261 47.5088 33.2177 47.5283 33.1778C47.5477 33.138 47.5749 33.1024 47.6081 33.073C47.6414 33.0437 47.6801 33.0212 47.722 33.0069C47.764 32.9925 47.8084 32.9866 47.8526 32.9895H48.1684C48.9474 32.9895 49.6842 32.9895 50.0632 33.4316C50.1777 33.6029 50.254 33.7969 50.2867 34.0003C50.3194 34.2038 50.3078 34.412 50.2526 34.6105V34.6737Z" fill="#179BD7"/>
<path d="M62.758 34.5474H60.6528C60.5653 34.5452 60.4797 34.5734 60.4107 34.6271C60.3416 34.6808 60.2932 34.7568 60.2738 34.8421V35.4526L60.1264 35.2211C59.8129 34.8994 59.4296 34.6543 59.0061 34.5046C58.5826 34.3549 58.1303 34.3047 57.6843 34.3579C56.5326 34.3846 55.4289 34.8246 54.5747 35.5976C53.7206 36.3706 53.1729 37.4251 53.0317 38.5684C52.9137 39.1295 52.9224 39.7097 53.0572 40.267C53.1919 40.8242 53.4493 41.3444 53.8107 41.7895C54.1348 42.1549 54.5392 42.4401 54.9922 42.6227C55.4451 42.8054 55.9343 42.8805 56.4212 42.8421C56.958 42.847 57.4903 42.7432 57.986 42.537C58.4817 42.3308 58.9305 42.0264 59.3054 41.6421V42.2526C59.2994 42.3031 59.3042 42.3542 59.3195 42.4026C59.3348 42.451 59.3602 42.4956 59.3941 42.5334C59.4279 42.5712 59.4694 42.6014 59.5159 42.622C59.5623 42.6425 59.6125 42.653 59.6633 42.6526H61.537C61.6798 42.6541 61.8182 42.6037 61.9266 42.5108C62.0351 42.4178 62.1061 42.2887 62.1264 42.1474L63.158 34.9684C63.1686 34.9127 63.1657 34.8553 63.1497 34.8008C63.1336 34.7464 63.1049 34.6966 63.0658 34.6555C63.0268 34.6144 62.9785 34.5831 62.925 34.5643C62.8714 34.5455 62.8142 34.5397 62.758 34.5474ZM57.5159 40.6316C57.2552 40.6475 56.9942 40.6068 56.7507 40.5123C56.5073 40.4178 56.2871 40.2718 56.1054 40.0842C55.9507 39.8712 55.8426 39.628 55.7882 39.3705C55.7338 39.113 55.7343 38.8468 55.7896 38.5895C55.8469 38.0143 56.1153 37.4807 56.543 37.0919C56.9707 36.7031 57.5274 36.4866 58.1054 36.4842C58.3734 36.4606 58.6431 36.5024 58.8914 36.606C59.1397 36.7095 59.3592 36.8718 59.531 37.0788C59.7028 37.2858 59.8218 37.5314 59.8779 37.7945C59.9339 38.0576 59.9253 38.3304 59.8528 38.5895C59.7897 39.1606 59.5146 39.6873 59.0819 40.0655C58.6492 40.4436 58.0904 40.6456 57.5159 40.6316Z" fill="#179BD7"/>
<path d="M67.5793 30.5053H65.474C65.388 30.4992 65.3029 30.5264 65.2363 30.5813C65.1697 30.6361 65.1267 30.7144 65.1161 30.8L63.4319 42.2105C63.4226 42.2625 63.4249 42.3159 63.4386 42.3669C63.4524 42.4179 63.4773 42.4653 63.5115 42.5055C63.5457 42.5458 63.5884 42.5779 63.6365 42.5997C63.6846 42.6215 63.737 42.6324 63.7898 42.6316H65.5793C65.7221 42.633 65.8605 42.5826 65.9689 42.4897C66.0773 42.3968 66.1483 42.2676 66.1687 42.1263L67.9372 30.9053C67.9431 30.8549 67.9383 30.8037 67.923 30.7553C67.9077 30.7069 67.8823 30.6623 67.8485 30.6245C67.8146 30.5867 67.7731 30.5565 67.7267 30.5359C67.6803 30.5154 67.63 30.5049 67.5793 30.5053Z" fill="#179BD7"/>
</svg>
