<svg width="121" height="120" viewBox="0 0 121 120" fill="none" xmlns="http://www.w3.org/2000/svg">
<path d="M96.5 30V18C96.5 15.7909 94.7091 14 92.5 14H24.5C22.2909 14 20.5 15.7909 20.5 18V104C20.5 106.209 22.2909 108 24.5 108H92.5C94.7091 108 96.5 106.209 96.5 104C96.5 99.7733 96.5 95.8001 96.5 92M96.5 46C96.5 56.7831 96.5 66.1726 96.5 76" stroke="#06232D" stroke-width="2.5"/>
<path d="M88.5 30H100.5C102.709 30 104.5 31.7909 104.5 34V42C104.5 44.2091 102.709 46 100.5 46H88.5" stroke="#92918F" stroke-width="2.5"/>
<path d="M88.5 76H100.5C102.709 76 104.5 77.7909 104.5 80V88C104.5 90.2091 102.709 92 100.5 92H88.5" stroke="#92918F" stroke-width="2.5"/>
<rect x="29.75" y="23.25" width="57.5" height="75.5" rx="2.75" stroke="#06232D" stroke-width="2.5"/>
<path fill-rule="evenodd" clip-rule="evenodd" d="M48.8142 34.546C51.1296 32.5861 54.0471 31.3156 57.25 31.0513V39.1113C56.2474 39.292 55.319 39.6863 54.5135 40.2453L48.8142 34.546ZM52.7457 42.013L47.0464 36.3137C45.0863 38.6291 43.8156 41.5469 43.5513 44.75H51.6113C51.7921 43.7471 52.1865 42.8185 52.7457 42.013ZM51.6113 47.25H43.5513C43.8156 50.453 45.0862 53.3706 47.0462 55.6861L52.7455 49.9868C52.1864 49.1813 51.792 48.2527 51.6113 47.25ZM54.5132 51.7545L48.8139 57.4538C51.1294 59.4138 54.047 60.6844 57.25 60.9487V52.8887C56.2473 52.708 55.3187 52.3136 54.5132 51.7545ZM59.75 52.8887V60.9487C62.9529 60.6844 65.8705 59.4139 68.1859 57.4539L62.4866 51.7546C61.6811 52.3137 60.7527 52.708 59.75 52.8887ZM64.2544 49.9869L69.9537 55.6862C71.9138 53.3708 73.1844 50.4531 73.4487 47.25H65.3887C65.2079 48.2528 64.8136 49.1814 64.2544 49.9869ZM65.3887 44.75H73.4487C73.1844 41.547 71.9138 38.6294 69.9538 36.3139L64.2545 42.0132C64.8136 42.8187 65.208 43.7473 65.3887 44.75ZM62.4868 40.2455L68.1861 34.5462C65.8706 32.5862 62.953 31.3156 59.75 31.0513V39.1113C60.7527 39.292 61.6813 39.6864 62.4868 40.2455ZM69.2046 35.4923L69.0077 35.2954C69.0739 35.3604 69.1396 35.4261 69.2046 35.4923ZM47.9513 56.6642L47.8358 56.5487C47.8741 56.5874 47.9126 56.6259 47.9513 56.6642ZM47.9604 35.3268L47.8268 35.4604C47.8711 35.4156 47.9156 35.3711 47.9604 35.3268ZM41.5 46C41.5 36.6112 49.1112 29 58.5 29C67.8888 29 75.5 36.6112 75.5 46C75.5 55.3888 67.8888 63 58.5 63C49.1112 63 41.5 55.3888 41.5 46ZM53.5 46C53.5 43.2386 55.7386 41 58.5 41C61.2614 41 63.5 43.2386 63.5 46C63.5 48.7614 61.2614 51 58.5 51C55.7386 51 53.5 48.7614 53.5 46Z" fill="#FFB78E"/>
<path fill-rule="evenodd" clip-rule="evenodd" d="M37.75 74C37.75 70.2721 40.7721 67.25 44.5 67.25C48.2279 67.25 51.25 70.2721 51.25 74C51.25 77.7279 48.2279 80.75 44.5 80.75C40.7721 80.75 37.75 77.7279 37.75 74ZM44.5 64.75C39.3914 64.75 35.25 68.8914 35.25 74C35.25 79.1086 39.3914 83.25 44.5 83.25C45.0718 83.25 45.6315 83.1981 46.1746 83.0988L54.1018 91.026C56.152 93.0763 59.4761 93.0763 61.5264 91.026C63.5766 88.9758 63.5766 85.6516 61.5264 83.6014L53.5989 75.6739C53.6982 75.131 53.75 74.5716 53.75 74C53.75 68.8914 49.6086 64.75 44.5 64.75ZM52.6911 78.3016C51.8191 79.9586 50.459 81.3187 48.8021 82.1908L55.8695 89.2583C56.9435 90.3322 58.6847 90.3322 59.7586 89.2583C60.8326 88.1843 60.8326 86.4431 59.7586 85.3692L52.6911 78.3016Z" fill="#92918F"/>
</svg>
