<svg width="73" height="80" viewBox="0 0 73 80" fill="none" xmlns="http://www.w3.org/2000/svg">
<g clip-path="url(#clip0)">
<path fill-rule="evenodd" clip-rule="evenodd" d="M71.6516 27.6517C70.9484 28.3549 69.9946 28.75 69 28.75H67.75V51.25H69C69.9946 51.25 70.9484 51.6451 71.6516 52.3484C72.3549 53.0516 72.75 54.0054 72.75 55V65C72.75 65.9946 72.3549 66.9484 71.6516 67.6516C70.9484 68.3549 69.9946 68.75 69 68.75H67.75V71.25C67.75 73.5706 66.8281 75.7962 65.1872 77.4372C63.5462 79.0781 61.3206 80 59 80H9C6.67936 80 4.45376 79.0781 2.81282 77.4372C1.17187 75.7962 0.25 73.5706 0.25 71.25V8.75C0.25 6.42936 1.17187 4.20376 2.81282 2.56282C4.45376 0.921872 6.67936 0 9 0H59C61.3206 0 63.5462 0.921872 65.1872 2.56282C66.8281 4.20376 67.75 6.42936 67.75 8.75V11.25H69C69.9946 11.25 70.9484 11.6451 71.6516 12.3483C72.3549 13.0516 72.75 14.0054 72.75 15V25C72.75 25.9946 72.3549 26.9484 71.6516 27.6517ZM70.25 25V15C70.25 14.6685 70.1183 14.3505 69.8839 14.1161C69.6495 13.8817 69.3315 13.75 69 13.75H62.75V26.25H69C69.3315 26.25 69.6495 26.1183 69.8839 25.8839C70.1183 25.6495 70.25 25.3315 70.25 25ZM59.5178 70.5178C59.9866 70.0489 60.25 69.413 60.25 68.75V11.25C60.25 10.587 59.9866 9.95107 59.5178 9.48223C59.0489 9.01339 58.413 8.75 57.75 8.75H10.25C9.58696 8.75 8.95107 9.01339 8.48223 9.48223C8.01339 9.95107 7.75 10.587 7.75 11.25V68.75C7.75 69.413 8.01339 70.0489 8.48223 70.5178C8.95107 70.9866 9.58696 71.25 10.25 71.25H57.75C58.413 71.25 59.0489 70.9866 59.5178 70.5178ZM63.4194 75.6694C64.5915 74.4973 65.25 72.9076 65.25 71.25V68.75H62.75C62.75 70.0761 62.2232 71.3479 61.2855 72.2855C60.3479 73.2232 59.0761 73.75 57.75 73.75H10.25C8.92392 73.75 7.65215 73.2232 6.71447 72.2855C5.77678 71.3479 5.25 70.0761 5.25 68.75V11.25C5.25 9.92392 5.77678 8.65215 6.71447 7.71447C7.65215 6.77678 8.92392 6.25 10.25 6.25H57.75C59.0761 6.25 60.3479 6.77678 61.2855 7.71447C62.2232 8.65215 62.75 9.92392 62.75 11.25H65.25V8.75C65.25 7.0924 64.5915 5.50269 63.4194 4.33058C62.2473 3.15848 60.6576 2.5 59 2.5H9C7.3424 2.5 5.75269 3.15848 4.58058 4.33058C3.40848 5.50269 2.75 7.0924 2.75 8.75V71.25C2.75 72.9076 3.40848 74.4973 4.58058 75.6694C5.75269 76.8415 7.3424 77.5 9 77.5H59C60.6576 77.5 62.2473 76.8415 63.4194 75.6694ZM70.25 65V55C70.25 54.6685 70.1183 54.3505 69.8839 54.1161C69.6495 53.8817 69.3315 53.75 69 53.75H62.75V66.25H69C69.3315 66.25 69.6495 66.1183 69.8839 65.8839C70.1183 65.6495 70.25 65.3315 70.25 65ZM62.75 51.25H65.25V28.75H62.75V51.25ZM34 11.25C31.2805 11.25 28.6221 12.0564 26.3609 13.5673C24.0997 15.0782 22.3374 17.2256 21.2967 19.7381C20.256 22.2506 19.9837 25.0153 20.5142 27.6825C21.0448 30.3497 22.3543 32.7997 24.2773 34.7227C26.2003 36.6457 28.6503 37.9552 31.3175 38.4858C33.9847 39.0163 36.7494 38.744 39.2619 37.7033C41.7744 36.6626 43.9218 34.9003 45.4327 32.6391C46.9436 30.3779 47.75 27.7195 47.75 25C47.75 21.3533 46.3013 17.8559 43.7227 15.2773C41.1441 12.6987 37.6467 11.25 34 11.25ZM34 30C33.0111 30 32.0444 29.7068 31.2222 29.1573C30.3999 28.6079 29.759 27.827 29.3806 26.9134C29.0022 25.9998 28.9032 24.9945 29.0961 24.0245C29.289 23.0546 29.7652 22.1637 30.4645 21.4645C31.1637 20.7652 32.0546 20.289 33.0246 20.0961C33.9945 19.9031 34.9998 20.0022 35.9134 20.3806C36.8271 20.759 37.6079 21.3999 38.1574 22.2221C38.7068 23.0444 39 24.0111 39 25C39 26.3261 38.4732 27.5979 37.5355 28.5355C36.5979 29.4732 35.3261 30 34 30ZM38.3375 18.8875C37.415 18.2447 36.3599 17.8175 35.25 17.6375V13.8875C37.3549 14.117 39.3523 14.9359 41.0125 16.25L38.3375 18.8875ZM32.75 17.6375C31.6402 17.8175 30.585 18.2447 29.6625 18.8875L26.9875 16.25C28.6406 14.9135 30.6386 14.0726 32.75 13.825V17.6375ZM27.8875 20.6875C27.2447 21.61 26.8175 22.6651 26.6375 23.775H22.8875C23.1125 21.6614 23.9316 19.6547 25.25 17.9875L27.8875 20.6875ZM26.6375 26.275C26.8175 27.3849 27.2447 28.44 27.8875 29.3625L25.25 32.0125C23.9135 30.3594 23.0726 28.3614 22.825 26.25L26.6375 26.275ZM29.6875 31.1375C30.61 31.7803 31.6652 32.2075 32.775 32.3875V36.1375C30.6588 35.9053 28.6519 35.0774 26.9875 33.75L29.6875 31.1375ZM35.275 32.3875C36.3849 32.2075 37.44 31.7803 38.3625 31.1375L41.0125 33.75C39.3594 35.0866 37.3614 35.9274 35.25 36.175L35.275 32.3875ZM40.1375 29.3375C40.7803 28.415 41.2075 27.3599 41.3875 26.25H45.1375C44.9007 28.3575 44.0731 30.3551 42.75 32.0125L40.1375 29.3375ZM41.3875 23.75C41.2075 22.6401 40.7803 21.585 40.1375 20.6625L42.75 17.9875C44.0866 19.6406 44.9274 21.6386 45.175 23.75H41.3875ZM26.5 49.1625V48.75C26.5 47.2666 26.0601 45.8166 25.236 44.5832C24.4119 43.3499 23.2406 42.3886 21.8701 41.8209C20.4997 41.2533 18.9917 41.1047 17.5368 41.3941C16.082 41.6835 14.7456 42.3978 13.6967 43.4467C12.6478 44.4956 11.9335 45.832 11.6441 47.2868C11.3547 48.7417 11.5033 50.2497 12.0709 51.6201C12.6386 52.9906 13.5999 54.1619 14.8332 54.986C16.0666 55.8101 17.5166 56.25 19 56.25H19.4125L26.5 63.325C27.4382 64.2632 28.7107 64.7903 30.0375 64.7903C31.3643 64.7903 32.6368 64.2632 33.575 63.325C34.5132 62.3868 35.0403 61.1143 35.0403 59.7875C35.0403 58.4607 34.5132 57.1882 33.575 56.25L26.5 49.1625ZM14 48.75C14 47.7611 14.2932 46.7944 14.8427 45.9722C15.3921 45.1499 16.173 44.509 17.0866 44.1306C18.0002 43.7522 19.0055 43.6532 19.9755 43.8461C20.9454 44.039 21.8363 44.5152 22.5355 45.2145C23.2348 45.9137 23.711 46.8046 23.9039 47.7746C24.0969 48.7445 23.9978 49.7498 23.6194 50.6634C23.241 51.5771 22.6001 52.3579 21.7779 52.9074C20.9556 53.4568 19.9889 53.75 19 53.75C17.6739 53.75 16.4022 53.2232 15.4645 52.2855C14.5268 51.3479 14 50.0761 14 48.75ZM31.8 61.55C31.3316 62.0156 30.698 62.277 30.0375 62.277C29.377 62.277 28.7434 62.0156 28.275 61.55L22.225 55.5125C23.7743 54.773 25.023 53.5243 25.7625 51.975L31.8 58.025C32.2656 58.4934 32.527 59.127 32.527 59.7875C32.527 60.448 32.2656 61.0816 31.8 61.55Z" fill="#06232D"/>
</g>
<defs>
<clipPath id="clip0">
<rect width="72.5" height="80" fill="white" transform="translate(0.25)"/>
</clipPath>
</defs>
</svg>
