<svg width="439" height="407" viewBox="0 0 439 407" fill="none" xmlns="http://www.w3.org/2000/svg">
<g clip-path="url(#clip0)">
<path d="M297.766 96.5075H295.534V35.3794C295.534 25.9965 291.807 16.9979 285.172 10.3632C278.538 3.72847 269.539 0.00112915 260.156 0.00112915H130.648C121.265 0.00112915 112.266 3.72847 105.631 10.3632C98.9966 16.9979 95.2693 25.9965 95.2693 35.3794V370.733C95.2693 380.116 98.9966 389.115 105.631 395.75C112.266 402.384 121.265 406.112 130.648 406.112H260.156C269.539 406.112 278.538 402.384 285.172 395.75C291.807 389.115 295.534 380.116 295.534 370.733V140.019H297.766V96.5075Z" fill="#E6E6E6"/>
<path d="M261.583 9.2045H244.678C245.456 11.1106 245.753 13.1788 245.543 15.2268C245.333 17.2748 244.623 19.2397 243.475 20.9484C242.326 22.6572 240.776 24.0573 238.959 25.0253C237.142 25.9934 235.115 26.4997 233.056 26.4997H158.862C156.804 26.4995 154.777 25.9931 152.961 25.0251C151.144 24.0571 149.593 22.6572 148.445 20.9487C147.297 19.2402 146.586 17.2755 146.376 15.2278C146.166 13.1801 146.463 11.1122 147.241 9.20617H131.449C124.442 9.20617 117.721 11.9898 112.766 16.9447C107.811 21.8996 105.028 28.6199 105.028 35.6272V370.487C105.028 377.495 107.811 384.215 112.766 389.17C117.721 394.125 124.442 396.908 131.449 396.908H261.578C268.586 396.908 275.306 394.125 280.261 389.17C285.216 384.215 287.999 377.495 287.999 370.487V35.6255C287.999 28.6182 285.216 21.8979 280.261 16.943C275.306 11.9881 268.586 9.2045 261.578 9.2045H261.583Z" fill="white"/>
<path d="M277.266 272.211H121.234C120.468 272.211 119.733 271.906 119.192 271.364C118.65 270.823 118.345 270.088 118.344 269.322V230.617C118.345 229.851 118.65 229.117 119.192 228.575C119.733 228.034 120.468 227.729 121.234 227.728H277.266C278.032 227.729 278.766 228.034 279.308 228.575C279.85 229.117 280.154 229.851 280.155 230.617V269.323C280.154 270.089 279.85 270.823 279.308 271.364C278.766 271.906 278.032 272.211 277.266 272.211ZM121.234 228.884C120.774 228.884 120.333 229.067 120.008 229.392C119.683 229.717 119.5 230.158 119.5 230.617V269.323C119.5 269.782 119.683 270.223 120.008 270.548C120.333 270.873 120.774 271.056 121.234 271.056H277.266C277.726 271.056 278.166 270.873 278.491 270.548C278.816 270.223 278.999 269.782 279 269.323V230.617C278.999 230.158 278.816 229.717 278.491 229.392C278.166 229.067 277.726 228.884 277.266 228.884H121.234Z" fill="#CCCCCC"/>
<path d="M141.46 262.105C148.162 262.105 153.595 256.671 153.595 249.969C153.595 243.267 148.162 237.833 141.46 237.833C134.757 237.833 129.324 243.267 129.324 249.969C129.324 256.671 134.757 262.105 141.46 262.105Z" fill="#CCCCCC"/>
<path d="M169.488 241.879C169.219 241.875 168.953 241.924 168.703 242.024C168.454 242.123 168.227 242.271 168.036 242.46C167.844 242.648 167.692 242.872 167.588 243.12C167.485 243.368 167.431 243.633 167.431 243.902C167.431 244.17 167.485 244.436 167.588 244.684C167.692 244.931 167.844 245.156 168.036 245.344C168.227 245.532 168.454 245.681 168.703 245.78C168.953 245.88 169.219 245.929 169.488 245.924H264.843C265.109 245.929 265.374 245.882 265.621 245.785C265.869 245.687 266.095 245.542 266.287 245.357C266.478 245.173 266.631 244.952 266.737 244.708C266.843 244.464 266.9 244.201 266.904 243.935C266.909 243.669 266.86 243.405 266.762 243.157C266.665 242.91 266.519 242.684 266.334 242.493C266.148 242.302 265.927 242.15 265.683 242.045C265.438 241.939 265.176 241.883 264.91 241.879H169.489H169.488Z" fill="#E6E6E6"/>
<path d="M169.488 254.015C168.951 254.015 168.437 254.228 168.057 254.608C167.678 254.987 167.465 255.501 167.465 256.038C167.465 256.574 167.678 257.089 168.057 257.468C168.437 257.848 168.951 258.061 169.488 258.061H264.843C265.109 258.066 265.374 258.018 265.621 257.921C265.869 257.824 266.095 257.679 266.287 257.494C266.478 257.309 266.631 257.088 266.737 256.844C266.843 256.6 266.9 256.338 266.904 256.072C266.909 255.806 266.86 255.541 266.763 255.294C266.665 255.046 266.519 254.821 266.334 254.63C266.148 254.439 265.927 254.286 265.683 254.181C265.439 254.076 265.176 254.019 264.91 254.016H169.489L169.488 254.015Z" fill="#E6E6E6"/>
<path d="M277.266 336.936H121.234C120.468 336.935 119.733 336.63 119.192 336.089C118.65 335.547 118.345 334.812 118.344 334.046V295.342C118.345 294.576 118.65 293.841 119.192 293.3C119.733 292.758 120.468 292.453 121.234 292.452H277.266C278.032 292.453 278.766 292.758 279.308 293.3C279.85 293.841 280.154 294.576 280.155 295.342V334.047C280.154 334.813 279.85 335.547 279.308 336.089C278.766 336.63 278.032 336.935 277.266 336.936ZM121.234 293.608C120.774 293.609 120.333 293.791 120.008 294.116C119.683 294.441 119.5 294.882 119.5 295.342V334.047C119.5 334.507 119.683 334.947 120.008 335.272C120.333 335.597 120.774 335.78 121.234 335.781H277.266C277.726 335.78 278.166 335.597 278.491 335.272C278.816 334.947 278.999 334.507 279 334.047V295.342C278.999 294.882 278.816 294.441 278.491 294.116C278.166 293.791 277.726 293.609 277.266 293.608H121.234Z" fill="#CCCCCC"/>
<path d="M141.46 326.83C148.162 326.83 153.595 321.396 153.595 314.694C153.595 307.991 148.162 302.558 141.46 302.558C134.757 302.558 129.324 307.991 129.324 314.694C129.324 321.396 134.757 326.83 141.46 326.83Z" fill="#CCCCCC"/>
<path d="M169.488 306.604C168.951 306.604 168.437 306.817 168.057 307.196C167.678 307.576 167.465 308.09 167.465 308.626C167.465 309.163 167.678 309.677 168.057 310.057C168.437 310.436 168.951 310.649 169.488 310.649H264.843C265.109 310.654 265.374 310.607 265.621 310.51C265.869 310.412 266.095 310.267 266.287 310.082C266.478 309.897 266.631 309.677 266.737 309.433C266.843 309.189 266.9 308.926 266.904 308.66C266.909 308.394 266.86 308.13 266.763 307.882C266.665 307.635 266.519 307.409 266.334 307.218C266.148 307.027 265.927 306.875 265.683 306.769C265.439 306.664 265.176 306.608 264.91 306.604H169.489L169.488 306.604Z" fill="#E6E6E6"/>
<path d="M169.488 318.74C168.951 318.74 168.437 318.953 168.057 319.332C167.678 319.711 167.465 320.226 167.465 320.762C167.465 321.299 167.678 321.813 168.057 322.193C168.437 322.572 168.951 322.785 169.488 322.785H264.843C265.109 322.79 265.374 322.743 265.621 322.645C265.869 322.548 266.095 322.403 266.287 322.218C266.478 322.033 266.631 321.813 266.737 321.568C266.843 321.324 266.9 321.062 266.904 320.796C266.909 320.53 266.86 320.266 266.763 320.018C266.665 319.771 266.519 319.545 266.334 319.354C266.148 319.163 265.927 319.011 265.683 318.905C265.439 318.8 265.176 318.744 264.91 318.74H169.489L169.488 318.74Z" fill="#E6E6E6"/>
<path d="M195.966 191.893C181.412 191.899 167.452 186.124 157.156 175.837C146.86 165.55 141.073 151.594 141.066 137.04V136.994C141.066 136.879 141.066 136.758 141.073 136.643C141.24 106.578 165.867 82.0938 195.966 82.0938C210.526 82.093 224.491 87.8763 234.787 98.1715C245.083 108.467 250.868 122.43 250.869 136.991C250.87 151.551 245.087 165.515 234.791 175.812C224.496 186.108 210.533 191.893 195.972 191.894H195.966V191.893ZM195.966 83.2472C181.777 83.279 168.174 88.9086 158.112 98.913C148.05 108.917 142.342 122.488 142.229 136.677C142.223 136.8 142.223 136.9 142.223 136.992C142.222 147.623 145.373 158.016 151.278 166.856C157.184 175.696 165.578 182.587 175.4 186.656C185.221 190.725 196.029 191.791 206.456 189.717C216.883 187.644 226.461 182.525 233.979 175.008C241.497 167.491 246.617 157.914 248.692 147.487C250.766 137.06 249.702 126.252 245.634 116.43C241.566 106.608 234.677 98.2129 225.837 92.3064C216.998 86.3998 206.605 83.2472 195.974 83.2472H195.966Z" fill="#CCCCCC"/>
<path d="M224.413 160.239H168.828C168.758 160.239 168.689 160.234 168.62 160.222L194.909 114.688C195.07 114.404 195.303 114.169 195.584 114.005C195.866 113.841 196.186 113.754 196.511 113.754C196.837 113.754 197.157 113.841 197.438 114.005C197.72 114.169 197.953 114.404 198.113 114.688L215.757 145.246L216.602 146.708L224.413 160.239Z" fill="#6C63FF"/>
<path d="M356.177 87.3241C356.177 87.8617 356.123 88.3979 356.016 88.9245C354.546 89.5477 352.966 89.8689 351.37 89.8689C349.774 89.8689 348.194 89.5477 346.725 88.9245C346.617 88.3979 346.563 87.8617 346.563 87.3241C346.563 84.5307 347.986 82.1697 349.945 81.3807C349.163 81.0517 348.518 80.4621 348.121 79.712C347.724 78.9619 347.599 78.0976 347.767 77.2657C347.935 76.4337 348.385 75.6855 349.042 75.148C349.699 74.6105 350.521 74.3168 351.37 74.3168C352.219 74.3168 353.041 74.6105 353.698 75.148C354.355 75.6855 354.805 76.4337 354.973 77.2657C355.141 78.0976 355.016 78.9619 354.619 79.712C354.222 80.4621 353.577 81.0517 352.795 81.3807C354.755 82.1697 356.177 84.5307 356.177 87.3241Z" fill="#6C63FF"/>
<path d="M42.1945 206.963L88.0195 253.149H109.654V253.875H87.7164L87.6099 253.767L41.6783 207.472L42.1945 206.963Z" fill="#CCCCCC"/>
<path d="M27.0232 215.473C24.4406 215.475 21.8831 214.967 19.4967 213.98C17.1103 212.992 14.9417 211.545 13.1148 209.719C11.2879 207.894 9.83841 205.726 8.84913 203.341C7.85986 200.955 7.35015 198.398 7.34912 195.816V195.799C7.34912 195.758 7.34912 195.715 7.34912 195.674C7.37392 191.788 8.54884 187.997 10.7257 184.778C12.9025 181.559 15.9837 179.057 19.5808 177.587C23.1779 176.117 27.1297 175.746 30.9378 176.519C34.7458 177.292 38.2396 179.176 40.9786 181.932C43.7175 184.688 45.5788 188.194 46.3278 192.007C47.0768 195.82 46.68 199.769 45.1873 203.357C43.6946 206.945 41.1729 210.01 37.9403 212.166C34.7077 214.323 30.9089 215.473 27.0232 215.473ZM27.0232 176.539C21.9384 176.55 17.0635 178.568 13.4577 182.153C9.8519 185.738 7.80653 190.601 7.76597 195.686C7.76597 195.73 7.76597 195.766 7.76597 195.798C7.76552 199.608 8.89485 203.332 11.0111 206.5C13.1274 209.668 16.1356 212.137 19.6553 213.595C23.175 215.054 27.048 215.435 30.7847 214.692C34.5213 213.949 37.9537 212.115 40.6478 209.421C43.3419 206.727 45.1767 203.295 45.9201 199.559C46.6635 195.822 46.2822 191.949 44.8244 188.429C43.3665 184.909 40.8976 181.901 37.7299 179.784C34.5622 177.667 30.838 176.538 27.0282 176.538L27.0232 176.539Z" fill="#3F3D56"/>
<path d="M42.1945 275.7L88.0195 321.887H109.654V322.612H87.7164L87.6099 322.505L41.6783 276.21L42.1945 275.7Z" fill="#CCCCCC"/>
<path d="M27.0232 244.35C24.4406 244.349 21.8831 244.857 19.4967 245.844C17.1103 246.831 14.9417 248.279 13.1148 250.104C11.2879 251.93 9.83841 254.097 8.84913 256.483C7.85986 258.868 7.35015 261.426 7.34912 264.008V264.024C7.34912 264.066 7.34912 264.109 7.34912 264.15C7.37392 268.036 8.54884 271.827 10.7257 275.046C12.9025 278.265 15.9837 280.767 19.5808 282.237C23.1779 283.706 27.1297 284.078 30.9378 283.305C34.7458 282.532 38.2396 280.648 40.9786 277.892C43.7175 275.135 45.5788 271.629 46.3278 267.817C47.0768 264.004 46.68 260.054 45.1873 256.467C43.6946 252.879 41.1729 249.814 37.9403 247.657C34.7077 245.501 30.9089 244.35 27.0232 244.35ZM27.0232 283.285C21.9384 283.273 17.0635 281.256 13.4577 277.671C9.8519 274.085 7.80653 269.222 7.76597 264.138C7.76597 264.093 7.76597 264.058 7.76597 264.026C7.76541 260.216 8.89472 256.491 11.011 253.323C13.1274 250.155 16.1357 247.686 19.6554 246.228C23.1752 244.769 27.0484 244.388 30.7852 245.131C34.5219 245.874 37.9544 247.709 40.6484 250.402C43.3425 253.096 45.1771 256.529 45.9203 260.266C46.6636 264.002 46.2819 267.876 44.8238 271.395C43.3656 274.915 40.8964 277.924 37.7283 280.04C34.5603 282.156 30.8359 283.286 27.0259 283.285L27.0232 283.285Z" fill="#3F3D56"/>
<path d="M33.1211 204.864V194.404H31.0241V204.864H33.1211Z" fill="#CCCCCC"/>
<path d="M28.0728 204.866V186.734H25.9757V204.866H28.0728Z" fill="#6C63FF"/>
<path d="M23.0244 204.866V191.252H20.9274V204.866H23.0244Z" fill="#6C63FF"/>
<path opacity="0.8" d="M20.8225 266.221C22.0355 266.221 23.0188 265.237 23.0188 264.024C23.0188 262.811 22.0355 261.828 20.8225 261.828C19.6094 261.828 18.6261 262.811 18.6261 264.024C18.6261 265.237 19.6094 266.221 20.8225 266.221Z" fill="#6C63FF"/>
<path opacity="0.4" d="M33.226 266.221C34.439 266.221 35.4224 265.237 35.4224 264.024C35.4224 262.811 34.439 261.828 33.226 261.828C32.013 261.828 31.0297 262.811 31.0297 264.024C31.0297 265.237 32.013 266.221 33.226 266.221Z" fill="#6C63FF"/>
<path d="M347.082 290.903C346.896 290.986 346.751 291.139 346.679 291.329C346.606 291.519 346.612 291.73 346.695 291.916L350.35 300.086C350.433 300.272 350.587 300.416 350.777 300.489C350.967 300.562 351.178 300.556 351.364 300.473L365.616 294.107C365.801 294.024 365.946 293.871 366.019 293.681C366.091 293.491 366.086 293.28 366.003 293.094L362.348 284.924C362.264 284.738 362.111 284.593 361.921 284.521C361.731 284.448 361.52 284.454 361.334 284.537L347.082 290.903Z" fill="#6C63FF"/>
<path d="M361.229 288.361L350.005 293.359C349.943 293.387 349.873 293.389 349.809 293.365C349.746 293.34 349.695 293.292 349.667 293.23C349.639 293.168 349.637 293.098 349.662 293.034C349.686 292.971 349.735 292.92 349.797 292.892L361.02 287.894C361.082 287.866 361.153 287.864 361.216 287.889C361.279 287.913 361.331 287.961 361.358 288.023C361.386 288.085 361.388 288.156 361.363 288.219C361.339 288.283 361.291 288.334 361.229 288.361L361.229 288.361Z" fill="white"/>
<path d="M362.062 290.232L350.838 295.23C350.776 295.258 350.706 295.26 350.642 295.235C350.579 295.211 350.528 295.163 350.5 295.101C350.472 295.039 350.47 294.968 350.495 294.905C350.519 294.841 350.568 294.79 350.63 294.763L361.853 289.765C361.915 289.737 361.986 289.735 362.049 289.76C362.112 289.784 362.163 289.832 362.191 289.894C362.219 289.956 362.221 290.027 362.196 290.09C362.172 290.153 362.123 290.205 362.061 290.232L362.062 290.232Z" fill="white"/>
<path d="M362.895 292.102L351.671 297.1C351.609 297.128 351.539 297.13 351.475 297.105C351.412 297.081 351.361 297.033 351.333 296.971C351.306 296.909 351.304 296.838 351.328 296.775C351.352 296.712 351.401 296.66 351.463 296.633L362.686 291.635C362.748 291.607 362.819 291.605 362.882 291.63C362.946 291.654 362.997 291.702 363.024 291.764C363.052 291.826 363.054 291.897 363.03 291.96C363.005 292.023 362.957 292.075 362.895 292.102Z" fill="white"/>
<path opacity="0.6" d="M27.0242 266.221C28.2372 266.221 29.2206 265.237 29.2206 264.024C29.2206 262.811 28.2372 261.828 27.0242 261.828C25.8112 261.828 24.8279 262.811 24.8279 264.024C24.8279 265.237 25.8112 266.221 27.0242 266.221Z" fill="#6C63FF"/>
<path d="M423.468 286.133C423.139 285.464 422.961 284.731 422.947 283.986C422.932 283.241 423.081 282.501 423.383 281.82C423.685 281.138 424.133 280.531 424.695 280.041C425.257 279.552 425.92 279.191 426.636 278.985L427.617 260.891L435.183 266.491L433.092 282.815C433.358 284.041 433.166 285.323 432.55 286.417C431.934 287.511 430.939 288.341 429.752 288.75C428.566 289.159 427.27 289.118 426.111 288.635C424.953 288.153 424.011 287.262 423.466 286.132L423.468 286.133Z" fill="#FFB7B7"/>
<path d="M364.831 289.499C365.259 288.888 365.548 288.191 365.677 287.457C365.806 286.723 365.773 285.97 365.58 285.25C365.386 284.53 365.037 283.861 364.558 283.29C364.078 282.72 363.479 282.262 362.802 281.948L364.623 263.919L356.282 268.287L355.831 284.738C355.379 285.909 355.372 287.205 355.811 288.381C356.251 289.557 357.106 290.53 358.216 291.117C359.326 291.704 360.612 291.864 361.831 291.565C363.051 291.267 364.118 290.532 364.831 289.499Z" fill="#FFB7B7"/>
<path d="M409.349 400.335H403.39L400.554 377.345H409.35L409.349 400.335Z" fill="#FFB7B7"/>
<path d="M410.87 398.389H399.132C397.149 398.389 395.248 399.177 393.846 400.58C392.444 401.982 391.656 403.883 391.655 405.866V406.109H410.872L410.87 398.389Z" fill="#2F2E41"/>
<path d="M379.248 396.755L373.42 398.004L365.831 376.119L374.432 374.278L379.248 396.755Z" fill="#FFB7B7"/>
<path d="M380.327 394.534L368.85 396.993C367.889 397.199 366.978 397.592 366.17 398.149C365.361 398.707 364.67 399.419 364.136 400.243C363.603 401.068 363.237 401.99 363.059 402.956C362.882 403.922 362.896 404.914 363.102 405.874L363.153 406.112L381.944 402.086L380.327 394.534Z" fill="#2F2E41"/>
<path d="M420.096 268.776C420.096 268.776 426.436 288.373 420.227 310.534L413.906 337.08L412.337 395.819L399.538 391.71L394.324 302.117L370.306 342.884L382.947 391.71L368.41 392.184L352.712 339.381L366.514 290.108L369.042 278.098L420.096 268.776Z" fill="#2F2E41"/>
<path d="M368.276 203.694L381.007 196.439L403.031 195.167L418.308 203.187L412.099 245.778C412.099 245.778 423.94 262.771 419.623 274.094C414.295 288.069 367.702 295.36 368.613 281.721C370.051 260.198 372.272 261.683 373.901 251.128C375.686 239.548 363.183 224.699 363.183 224.699L368.276 203.694Z" fill="#E6E6E6"/>
<path d="M413.597 207.385L415.016 201.235C415.016 201.235 421.07 202.016 425.266 213.737C429.462 225.459 436.92 250.16 436.92 250.16L436.529 259.135C436.529 259.135 439.404 262.456 437.422 263.972C435.441 265.489 441.004 267.544 438.186 269.701C436.949 270.649 436.012 271.934 435.488 273.402C434.964 274.87 434.875 276.459 435.233 277.976L426.575 275.302L427.212 261.171L423.782 250.032L414.616 222.152L413.597 207.385Z" fill="#E6E6E6"/>
<path d="M372.94 208.434L371.011 202.469C371.011 202.469 367.46 201.018 364.839 209.206C362.217 217.393 360.973 238.119 360.973 238.119L355.88 262.823C355.88 262.823 353.977 265.969 354.987 266.871C355.997 267.772 350.544 269.04 353.715 270.711C356.885 272.382 353.441 270.351 354.626 274.16C355.404 276.662 354.606 277.976 354.606 277.976L364.408 276.004L367.082 263.341L373.146 239.798L372.94 208.434Z" fill="#E6E6E6"/>
<path d="M391.971 189.809C401.308 189.809 408.878 182.24 408.878 172.902C408.878 163.565 401.308 155.995 391.971 155.995C382.634 155.995 375.064 163.565 375.064 172.902C375.064 182.24 382.634 189.809 391.971 189.809Z" fill="#2F2E41"/>
<path d="M393.708 162.38C397.346 158.691 401.748 155.844 406.605 154.04C409.723 152.885 413.116 152.171 416.375 152.828C419.635 153.484 422.717 155.738 423.627 158.936C424.37 161.551 423.603 164.367 422.449 166.829C421.295 169.291 419.754 171.572 418.822 174.127C417.87 176.732 417.583 179.534 417.989 182.278C418.394 185.022 419.478 187.621 421.143 189.84C422.808 192.059 425 193.827 427.522 194.983C430.043 196.14 432.813 196.648 435.581 196.463C432.378 196.893 429.426 198.398 426.296 199.197C423.166 199.997 419.471 199.944 417.144 197.701C414.683 195.328 414.633 191.47 414.753 188.054L415.283 172.816C415.374 170.226 415.451 167.553 414.517 165.135C413.582 162.717 411.363 160.601 408.769 160.623C406.805 160.639 405.066 161.829 403.491 163.002C401.917 164.176 400.249 165.428 398.292 165.602C396.336 165.776 394.102 164.329 394.248 162.37L393.708 162.38Z" fill="#2F2E41"/>
<path d="M401.191 173.147C397.894 167.117 390.333 164.9 384.302 168.197C378.271 171.494 376.055 179.055 379.351 185.086C382.648 191.117 390.21 193.333 396.24 190.037C402.271 186.74 404.488 179.178 401.191 173.147Z" fill="#FFB7B7"/>
<path d="M372.768 178.174H390.736L390.92 175.594L391.842 178.174H394.609L394.974 173.061L396.8 178.174H402.157V177.921C402.153 174.361 400.737 170.948 398.22 168.431C395.702 165.913 392.289 164.497 388.729 164.493H386.196C382.636 164.497 379.223 165.913 376.706 168.431C374.189 170.948 372.773 174.361 372.769 177.921L372.768 178.174Z" fill="#2F2E41"/>
<path d="M399.443 187.449L406.005 180.879L407.112 166.337H392.625L392.984 166.695C397.974 171.678 403.36 178.991 399.443 187.449Z" fill="#2F2E41"/>
<path d="M429.401 406.113H0.57706C0.429065 406.113 0.287131 406.054 0.182482 405.95C0.0778335 405.845 0.019043 405.703 0.019043 405.555C0.019043 405.407 0.0778335 405.265 0.182482 405.161C0.287131 405.056 0.429065 404.997 0.57706 404.997H429.401C429.549 404.997 429.691 405.056 429.795 405.161C429.9 405.265 429.959 405.407 429.959 405.555C429.959 405.703 429.9 405.845 429.795 405.95C429.691 406.054 429.549 406.113 429.401 406.113Z" fill="#E6E6E6"/>
<path d="M43.5749 390.252C44.7324 390.659 45.9754 390.761 47.1838 390.548C48.3923 390.335 49.5255 389.814 50.4742 389.036C52.8904 387.008 53.6482 383.666 54.2648 380.572L56.0884 371.421L52.271 374.049C49.5256 375.94 46.7188 377.891 44.8182 380.629C42.9176 383.366 42.0878 387.102 43.6151 390.067" fill="#E6E6E6"/>
<path d="M44.1553 401.968C43.6749 398.467 43.1805 394.922 43.5175 391.384C43.7367 388.229 44.85 385.202 46.7272 382.657C47.7631 381.323 49.0236 380.181 50.452 379.281C50.8248 379.046 51.1674 379.636 50.7963 379.87C48.3246 381.432 46.4129 383.739 45.3367 386.458C44.1481 389.481 43.9572 392.777 44.162 395.988C44.2859 397.93 44.5482 399.86 44.8132 401.787C44.834 401.874 44.821 401.965 44.7767 402.043C44.7325 402.121 44.6604 402.179 44.575 402.206C44.4877 402.23 44.3947 402.218 44.3162 402.173C44.2376 402.129 44.1798 402.055 44.1553 401.968Z" fill="#F2F2F2"/>
<path d="M47.614 396.351C48.1105 397.106 48.7929 397.72 49.5955 398.134C50.3981 398.548 51.2939 398.749 52.1965 398.716C54.5161 398.605 56.4502 396.986 58.1912 395.45L63.3406 390.904L59.9328 390.741C57.482 390.624 54.9664 390.515 52.6339 391.27C50.3014 392.026 48.1469 393.845 47.72 396.261" fill="#E6E6E6"/>
<path d="M42.7972 403.98C45.1102 399.887 47.7931 395.339 52.587 393.884C53.9199 393.482 55.3175 393.337 56.7046 393.459C57.1416 393.497 57.0328 394.171 56.5964 394.133C54.2712 393.94 51.9506 394.554 50.0252 395.872C48.2151 397.185 46.6805 398.842 45.5086 400.746C44.7608 401.885 44.0907 403.073 43.4205 404.258C43.2068 404.637 42.5807 404.364 42.7972 403.98Z" fill="#F2F2F2"/>
<path d="M351.428 101.766C348.845 101.767 346.288 101.26 343.901 100.272C341.515 99.2851 339.346 97.8374 337.519 96.0119C335.692 94.1865 334.243 92.0192 333.254 89.6336C332.264 87.248 331.755 84.6909 331.754 82.1083V82.0921C331.754 82.0509 331.754 82.0073 331.754 81.9666C331.778 78.0809 332.953 74.2895 335.13 71.0707C337.307 67.8519 340.388 65.3498 343.985 63.8799C347.582 62.4101 351.534 62.0383 355.342 62.8116C359.15 63.5848 362.644 65.4684 365.383 68.2248C368.122 70.9812 369.983 74.487 370.732 78.2999C371.481 82.1128 371.084 86.0621 369.592 89.6498C368.099 93.2374 365.577 96.3027 362.345 98.459C359.112 100.615 355.313 101.766 351.428 101.766ZM351.428 62.8316C346.343 62.8431 341.468 64.8606 337.862 68.4458C334.256 72.031 332.211 76.8942 332.171 81.9789C332.171 82.023 332.171 82.0587 332.171 82.0905C332.17 85.9003 333.299 89.6246 335.416 92.7926C337.532 95.9605 340.54 98.4298 344.06 99.888C347.58 101.346 351.453 101.728 355.189 100.985C358.926 100.242 362.358 98.4077 365.052 95.7139C367.746 93.0202 369.581 89.588 370.325 85.8514C371.068 82.1148 370.687 78.2417 369.229 74.7219C367.771 71.2021 365.302 68.1936 362.134 66.0769C358.967 63.9603 355.243 62.8305 351.433 62.8305L351.428 62.8316Z" fill="#3F3D56"/>
<path d="M331.237 90.0796L285.412 136.266H263.778V136.992H285.715L285.822 136.884L331.754 90.5896L331.237 90.0796Z" fill="#CCCCCC"/>
</g>
<defs>
<clipPath id="clip0">
<rect width="439" height="406.113" fill="white"/>
</clipPath>
</defs>
</svg>
