<svg width="105" height="82" viewBox="0 0 105 82" fill="none" xmlns="http://www.w3.org/2000/svg">
<path d="M45.1944 21.1319C46.0827 20.8939 47.0409 20.9744 47.8227 21.4254C48.6046 21.8763 49.1526 22.6649 49.391 23.5548L50.6326 28.1885L53.9424 27.3016C54.6355 27.116 55.4352 27.5776 55.621 28.2708L58.4589 38.862C59.5974 38.5569 60.7644 38.2442 61.8928 37.9419C62.56 37.8288 63.2749 38.2899 63.4473 38.9443L66.9947 52.1833C67.1803 52.8765 66.7187 53.6762 66.0255 53.862L49.4767 58.2962C45.099 59.4692 40.5779 56.859 39.4049 52.4812C38.2319 48.1035 40.8421 43.5824 45.2199 42.4094L55.8111 39.5715L53.3279 30.3042L9.63921 42.0105C8.67918 42.2678 7.70299 42.2601 6.80295 42.0167L10.0067 53.9732C10.204 54.6699 9.74207 55.4832 9.04257 55.6707C8.34307 55.8581 7.5364 55.3847 7.35888 54.6826L2.92465 38.1339C2.91341 38.092 2.90157 38.0517 2.89139 38.0098C2.88748 37.996 2.88379 37.9822 2.8803 37.9684C2.20996 35.11 3.94633 32.1843 6.8013 31.4193L45.1944 21.1319ZM45.9039 23.7797L7.51078 34.0671C6.02099 34.4663 5.17326 35.9346 5.57245 37.4244C5.97164 38.9142 7.43995 39.7619 8.92973 39.3627L47.9848 28.898L46.7432 24.2643C46.66 23.9539 46.5364 23.8476 46.4392 23.7915C46.3419 23.7354 46.2134 23.6968 45.9039 23.7797ZM61.1542 40.9777L45.9294 45.0572C42.9727 45.8494 41.2605 48.8151 42.0527 51.7717C42.845 54.7284 45.8106 56.4406 48.7673 55.6484L63.9921 51.5689L61.1542 40.9777ZM46.1543 48.5443C47.2353 48.2546 48.3825 48.9169 48.6722 49.998C48.9619 51.0791 48.2995 52.2263 47.2185 52.516C46.1374 52.8057 44.9902 52.1433 44.7005 51.0623C44.4109 49.9812 45.0732 48.834 46.1543 48.5443ZM9.76768 58.2941C10.4638 58.1191 11.2563 58.5933 11.4312 59.2895L11.603 59.9307C11.8003 60.6275 11.3384 61.4408 10.6389 61.6282C9.93939 61.8156 9.13272 61.3423 8.9552 60.6402L8.78337 59.9989C8.58287 59.2949 9.05773 58.4724 9.76768 58.2941ZM18.5772 59.4809C19.9258 59.1196 21.2851 59.0353 22.583 59.2057C23.2945 59.2962 23.8606 60.0235 23.7736 60.7355C23.6866 61.4474 22.962 62.017 22.2497 61.9334C21.2965 61.8082 20.2677 61.8659 19.2867 62.1287C15.2496 63.2105 12.8746 67.3241 13.9563 71.3612C15.0381 75.3983 19.1517 77.7734 23.1888 76.6916C27.226 75.6099 29.601 71.4962 28.5192 67.4591C28.1276 65.9975 27.3653 64.7561 26.3491 63.8281C25.8157 63.3442 25.7723 62.4175 26.2582 61.8859C26.7441 61.3543 27.6708 61.3143 28.2007 61.8022C29.6106 63.0896 30.6453 64.8023 31.167 66.7496C32.6322 72.2177 29.3664 77.8743 23.8983 79.3394C18.4302 80.8046 12.7737 77.5388 11.3085 72.0707C9.84335 66.6026 13.1091 60.9461 18.5772 59.4809ZM23.6226 64.4921C24.1369 64.4066 24.691 64.6447 24.9831 65.0767C25.2751 65.5086 25.2894 66.1116 25.0183 66.557L21.6263 72.4322C21.2326 73.1028 20.215 73.2975 19.6016 72.8195L16.9063 70.7038C16.2942 70.2808 16.1472 69.3199 16.6048 68.7332C17.0624 68.1465 18.0301 68.0551 18.5895 68.5456L20.0476 69.6847L22.6522 65.1734C22.8523 64.817 23.2194 64.5592 23.6226 64.4921ZM62.2406 57.6919C62.9103 57.589 63.6187 58.0624 63.78 58.7205L65.5537 65.34C65.7393 66.0332 65.2777 66.8328 64.5845 67.0186L35.4587 74.8229C34.7619 75.0202 33.9486 74.5583 33.7612 73.8588C33.5738 73.1593 34.0471 72.3526 34.7492 72.1751L62.5511 64.7256L61.1322 59.43C60.9148 58.6833 61.4719 57.8097 62.2406 57.6919Z" fill="#06232D"/>
<path d="M85.1262 38.2524C85.1262 28.2415 77.0108 20.1262 67 20.1262" stroke="#06232D" stroke-width="3" stroke-linecap="round" stroke-linejoin="round"/>
<path d="M94.5834 33.5239C94.5834 20.9015 84.351 10.6691 71.7286 10.6691" stroke="#06232D" stroke-width="3" stroke-linecap="round" stroke-linejoin="round"/>
<path d="M103.253 29.1893C103.253 14.1731 91.0794 2 76.0632 2" stroke="#06232D" stroke-width="3" stroke-linecap="round" stroke-linejoin="round"/>
</svg>
