<svg width="121" height="120" viewBox="0 0 121 120" fill="none" xmlns="http://www.w3.org/2000/svg">
<path fill-rule="evenodd" clip-rule="evenodd" d="M60.5 49.25C57.8766 49.25 55.75 51.3766 55.75 54V58H65.25V54C65.25 51.3766 63.1234 49.25 60.5 49.25ZM53.25 54V58H53H50.5V60.5V69.5V72H53H68H70.5V69.5V60.5V58H68H67.75V54C67.75 49.9959 64.5041 46.75 60.5 46.75C56.4959 46.75 53.25 49.9959 53.25 54ZM53 60.5V69.5H68V60.5H53ZM61.75 64C61.75 63.3096 61.1904 62.75 60.5 62.75C59.8096 62.75 59.25 63.3096 59.25 64V67C59.25 67.6904 59.8096 68.25 60.5 68.25C61.1904 68.25 61.75 67.6904 61.75 67V64Z" fill="#FFB78E"/>
<path fill-rule="evenodd" clip-rule="evenodd" d="M80 41.9095L60.5 36.5913L41 41.9095V57.3358C41 68.1057 46.5023 78.1291 55.5884 83.9112L60.5 87.0367L65.4116 83.9112C74.4977 78.1291 80 68.1057 80 57.3358V41.9095ZM60.5 90L66.7538 86.0203C76.561 79.7794 82.5 68.9604 82.5 57.3358V40L60.5 34L38.5 40V57.3358C38.5 68.9604 44.439 79.7794 54.2462 86.0203L60.5 90ZM74.5 48C75.6046 48 76.5 47.1046 76.5 46C76.5 44.8954 75.6046 44 74.5 44C73.3954 44 72.5 44.8954 72.5 46C72.5 47.1046 73.3954 48 74.5 48ZM48.5 46C48.5 47.1046 47.6046 48 46.5 48C45.3954 48 44.5 47.1046 44.5 46C44.5 44.8954 45.3954 44 46.5 44C47.6046 44 48.5 44.8954 48.5 46Z" fill="#06232D"/>
<path d="M27.4087 24.0086C27.3673 24.6978 27.8924 25.29 28.5815 25.3314L39.8112 26.0064C40.5003 26.0478 41.0925 25.5227 41.134 24.8336C41.1754 24.1445 40.6503 23.5523 39.9612 23.5109L29.9792 22.9109L30.5792 12.9289C30.6206 12.2398 30.0956 11.6476 29.4064 11.6062C28.7173 11.5647 28.1251 12.0898 28.0837 12.7789L27.4087 24.0086ZM61.4716 12.0098L61.4463 13.2596L61.4716 12.0098ZM93.7711 25.4019L94.6376 24.5009L93.7711 25.4019ZM108.415 57.1533L107.168 57.2274L108.415 57.1533ZM33.1331 99.4339L32.4204 100.461L33.1331 99.4339ZM13.6414 70.4049L12.4212 70.6759H12.4212L13.6414 70.4049ZM20.0955 36.4833C20.4428 35.8866 20.2406 35.1214 19.644 34.7742C19.0473 34.4269 18.2821 34.6291 17.9349 35.2257L20.0955 36.4833ZM29.4857 25.019C38.2819 17.2203 49.6932 13.0216 61.4463 13.2596L61.4969 10.7601C49.1153 10.5094 37.0937 14.9326 27.8272 23.1483L29.4857 25.019ZM61.4463 13.2596C73.1994 13.4975 84.4314 18.1546 92.9047 26.3029L94.6376 24.5009C85.7112 15.9168 73.8785 11.0108 61.4969 10.7601L61.4463 13.2596ZM92.9047 26.3029C101.378 34.4512 106.47 45.4926 107.168 57.2274L109.663 57.0791C108.929 44.7168 103.564 33.0849 94.6376 24.5009L92.9047 26.3029ZM107.168 57.2274C107.865 68.9622 104.115 80.5289 96.6666 89.6232L98.6006 91.2073C106.448 81.6267 110.398 69.4415 109.663 57.0791L107.168 57.2274ZM96.6666 89.6232C89.2177 98.7174 78.616 104.672 66.9738 106.299L67.32 108.775C79.5848 107.06 90.7534 100.788 98.6006 91.2073L96.6666 89.6232ZM66.9738 106.299C55.3316 107.927 43.5034 105.109 33.8457 98.407L32.4204 100.461C42.5945 107.522 55.0552 110.49 67.32 108.775L66.9738 106.299ZM33.8457 98.407C24.1881 91.7047 17.41 81.6099 14.8617 70.134L12.4212 70.6759C15.1057 82.7655 22.2463 93.4001 32.4204 100.461L33.8457 98.407ZM14.8617 70.134C12.3135 58.658 14.1822 46.6432 20.0955 36.4833L17.9349 35.2257C11.7053 45.9289 9.73664 58.5862 12.4212 70.6759L14.8617 70.134Z" fill="#06232D"/>
<path d="M45.9192 21.9479C54.8911 18.5101 64.7891 18.3529 73.8655 21.5042C82.9419 24.6555 90.613 30.9125 95.5241 39.1704C100.435 47.4283 102.271 57.1559 100.706 66.6356C99.1416 76.1153 94.2778 84.7373 86.9736 90.9792C79.6695 97.221 70.3947 100.681 60.787 100.749C51.1793 100.817 41.8567 97.4874 34.4653 91.349C27.074 85.2106 22.0892 76.658 20.3913 67.2012C18.6935 57.7445 20.3916 47.992 25.186 39.6658" stroke="#92918F" stroke-width="2.5" stroke-linecap="round"/>
</svg>
